<svg width="413" height="33" viewBox="0 0 413 33" fill="none" xmlns="http://www.w3.org/2000/svg">
<path fill-rule="evenodd" clip-rule="evenodd" d="M1.49878 2.36023C1.49878 3.75011 1.63818 4.17845 2.29083 4.7915C2.72645 5.20083 3.08287 5.69982 3.08287 5.90037C3.08287 6.10091 2.72645 6.5999 2.29083 7.00923C1.62171 7.6378 1.49878 8.03985 1.49878 9.59891V11.4447H3.19439C4.65841 11.4447 5.03004 11.3107 5.91808 10.4619L6.94649 9.47915L7.96031 10.4619C8.8303 11.3053 9.20825 11.4447 10.6225 11.4447H12.2706V9.64041C12.2706 8.12032 12.1385 7.698 11.4314 6.95981L10.5921 6.08412L11.4314 4.98349C12.084 4.12808 12.2706 3.52644 12.2706 2.27817V0.672852H10.4663C8.93991 0.672852 8.52519 0.804015 7.77338 1.52414L6.8847 2.37544L5.99603 1.52414C5.24422 0.804015 4.8295 0.672852 3.30307 0.672852H1.49878V2.36023ZM16.1133 2.05703L14.8052 3.38989L14.8106 6.07081L14.8159 8.75174L16.0864 10.0038L17.3565 11.2562L14.744 13.8823L12.1312 16.5087L10.8424 15.244L9.55359 13.9793H6.85777H4.16196L2.98878 15.1806C2.34342 15.8415 1.8156 16.5376 1.8156 16.728C1.8156 16.9181 2.38619 17.5894 3.08382 18.2196C4.31878 19.3351 4.41859 19.3652 6.89263 19.3652H9.43351L10.8709 18.0399L12.3086 16.715L14.8955 19.3018L17.4823 21.8886L16.1437 23.2529L14.8052 24.6168V27.3126V30.0084L16.0066 31.1816C16.6674 31.8269 17.3515 32.3548 17.5263 32.3548C17.7015 32.3548 18.3726 31.8143 19.0179 31.1534C20.1829 29.9602 20.1911 29.9333 20.1911 27.2844V24.6168L18.8551 23.2554L17.5187 21.8937L20.0355 19.3623C21.4197 17.9699 22.6271 16.8325 22.7184 16.8344C22.8093 16.8366 23.4962 17.4069 24.2442 18.1017C25.6024 19.363 25.609 19.3652 28.2177 19.3652H30.8311L32.165 18.006L33.4988 16.6469L32.1396 15.3131L30.7805 13.9793H28.1116H25.4427L24.1539 15.244L22.8651 16.5087L20.2567 13.8867L17.6483 11.2647L18.9197 10.0231L20.1911 8.78152V6.13418C20.1911 3.64461 20.1322 3.41397 19.2033 2.2579C18.6602 1.5818 18.037 0.960207 17.8184 0.876567C17.6002 0.79261 16.8328 1.32391 16.1133 2.05703ZM22.7257 2.35611C22.7257 3.8138 22.8533 4.16166 23.6786 4.95213L24.6313 5.8652L23.6603 6.86698C22.7843 7.77118 22.699 8.03573 22.7868 9.57769L22.8841 11.2863L24.5927 11.3836C26.1346 11.4713 26.3992 11.3861 27.3034 10.5101L28.3052 9.53903L29.2182 10.4917C30.0087 11.317 30.3566 11.4447 31.8142 11.4447H33.4975V9.64041C33.4975 8.11398 33.3663 7.69926 32.6462 6.94745L31.7949 6.05878L32.6462 5.1701C33.3663 4.41829 33.4975 4.00357 33.4975 2.47714V0.672852H31.6932C30.1668 0.672852 29.7521 0.804015 29.0003 1.52414L28.1116 2.37544L27.2229 1.52414C26.4711 0.804015 26.0564 0.672852 24.5299 0.672852H22.7257V2.35611ZM1.49878 23.5871C1.49878 24.977 1.63818 25.4053 2.29083 26.0184C3.28564 26.953 3.28341 27.3037 2.27719 28.2491C1.57259 28.9109 1.48293 29.2265 1.56435 30.7596L1.65719 32.5132L3.27835 32.6076C4.64163 32.6868 5.05507 32.5705 5.87975 31.877C6.91132 31.0089 7.54496 31.0834 8.45455 32.1789C8.73145 32.5128 9.41229 32.6716 10.5668 32.6716H12.2706V30.8673C12.2706 29.3409 12.1395 28.9261 11.4193 28.1743L10.568 27.2857L11.4193 26.397C12.1395 25.6452 12.2706 25.2304 12.2706 23.704V21.8997H10.4663C8.93991 21.8997 8.52519 22.0309 7.77338 22.751L6.8847 23.6023L5.99603 22.751C5.24422 22.0309 4.8295 21.8997 3.30307 21.8997H1.49878V23.5871ZM22.7257 23.583C22.7257 25.0407 22.8533 25.3885 23.6786 26.179L24.6313 27.0921L23.6603 28.0939C22.7843 28.9981 22.699 29.2626 22.7868 30.8046L22.8841 32.5132L24.5904 32.6104C26.0782 32.6953 26.4096 32.5997 27.1785 31.8631C28.0973 30.9826 28.3581 31.0086 29.5778 32.1042C30.0892 32.5629 30.6252 32.6858 31.7955 32.6114L33.3391 32.5132L33.4364 30.8068C33.5219 29.3082 33.4278 28.9901 32.6643 28.193L31.7949 27.2857L32.6462 26.397C33.3663 25.6452 33.4975 25.2304 33.4975 23.704V21.8997H31.6932C30.1668 21.8997 29.7521 22.0309 29.0003 22.751L28.1116 23.6023L27.2229 22.751C26.4711 22.0309 26.0564 21.8997 24.5299 21.8997H22.7257V23.583Z" fill="#B5A98F" fill-opacity="0.25"/>
<path fill-rule="evenodd" clip-rule="evenodd" d="M32.999 2.36023C32.999 3.75011 33.1384 4.17845 33.7911 4.7915C34.2267 5.20083 34.5831 5.69982 34.5831 5.90037C34.5831 6.10091 34.2267 6.5999 33.7911 7.00923C33.1219 7.6378 32.999 8.03985 32.999 9.59891V11.4447H34.6946C36.1587 11.4447 36.5303 11.3107 37.4183 10.4619L38.4467 9.47915L39.4606 10.4619C40.3305 11.3053 40.7085 11.4447 42.1228 11.4447H43.7709V9.64041C43.7709 8.12032 43.6388 7.698 42.9316 6.95981L42.0924 6.08412L42.9316 4.98349C43.5843 4.12808 43.7709 3.52644 43.7709 2.27817V0.672852H41.9666C40.4401 0.672852 40.0254 0.804015 39.2736 1.52414L38.3849 2.37544L37.4963 1.52414C36.7445 0.804015 36.3297 0.672852 34.8033 0.672852H32.999V2.36023ZM47.6136 2.05703L46.3054 3.38989L46.3108 6.07081L46.3162 8.75174L47.5866 10.0038L48.8568 11.2562L46.2443 13.8823L43.6315 16.5087L42.3427 15.244L41.0538 13.9793H38.358H35.6622L34.489 15.1806C33.8437 15.8415 33.3158 16.5376 33.3158 16.728C33.3158 16.9181 33.8864 17.5894 34.5841 18.2196C35.819 19.3351 35.9188 19.3652 38.3929 19.3652H40.9338L42.3712 18.0399L43.8089 16.715L46.3957 19.3018L48.9825 21.8886L47.644 23.2529L46.3054 24.6168V27.3126V30.0084L47.5068 31.1816C48.1677 31.8269 48.8517 32.3548 49.0266 32.3548C49.2018 32.3548 49.8728 31.8143 50.5182 31.1534C51.6831 29.9602 51.6913 29.9333 51.6913 27.2844V24.6168L50.3553 23.2554L49.019 21.8937L51.5358 19.3623C52.92 17.9699 54.1274 16.8325 54.2186 16.8344C54.3095 16.8366 54.9964 17.4069 55.7444 18.1017C57.1026 19.363 57.1093 19.3652 59.718 19.3652H62.3314L63.6652 18.006L64.999 16.6469L63.6399 15.3131L62.2807 13.9793H59.6118H56.9429L55.6541 15.244L54.3653 16.5087L51.7569 13.8867L49.1486 11.2647L50.42 10.0231L51.6913 8.78152V6.13418C51.6913 3.64461 51.6324 3.41397 50.7035 2.2579C50.1605 1.5818 49.5373 0.960207 49.3187 0.876567C49.1004 0.79261 48.3331 1.32391 47.6136 2.05703ZM54.2259 2.35611C54.2259 3.8138 54.3536 4.16166 55.1789 4.95213L56.1316 5.8652L55.1605 6.86698C54.2845 7.77118 54.1993 8.03573 54.287 9.57769L54.3843 11.2863L56.0929 11.3836C57.6349 11.4713 57.8994 11.3861 58.8036 10.5101L59.8054 9.53903L60.7185 10.4917C61.5089 11.317 61.8568 11.4447 63.3145 11.4447H64.9977V9.64041C64.9977 8.11398 64.8666 7.69926 64.1465 6.94745L63.2952 6.05878L64.1465 5.1701C64.8666 4.41829 64.9977 4.00357 64.9977 2.47714V0.672852H63.1935C61.667 0.672852 61.2523 0.804015 60.5005 1.52414L59.6118 2.37544L58.7231 1.52414C57.9713 0.804015 57.5566 0.672852 56.0302 0.672852H54.2259V2.35611ZM32.999 23.5871C32.999 24.977 33.1384 25.4053 33.7911 26.0184C34.7859 26.953 34.7837 27.3037 33.7774 28.2491C33.0728 28.9109 32.9832 29.2265 33.0646 30.7596L33.1574 32.5132L34.7786 32.6076C36.1419 32.6868 36.5553 32.5705 37.38 31.877C38.4116 31.0089 39.0452 31.0834 39.9548 32.1789C40.2317 32.5129 40.9125 32.6716 42.067 32.6716H43.7709V30.8673C43.7709 29.3409 43.6397 28.9261 42.9196 28.1743L42.0683 27.2857L42.9196 26.397C43.6397 25.6452 43.7709 25.2304 43.7709 23.704V21.8997H41.9666C40.4401 21.8997 40.0254 22.0309 39.2736 22.751L38.3849 23.6023L37.4963 22.751C36.7445 22.0309 36.3297 21.8997 34.8033 21.8997H32.999V23.5871ZM54.2259 23.583C54.2259 25.0407 54.3536 25.3885 55.1789 26.179L56.1316 27.0921L55.1605 28.0939C54.2845 28.9981 54.1993 29.2626 54.287 30.8046L54.3843 32.5132L56.0907 32.6104C57.5785 32.6953 57.9099 32.5997 58.6788 31.8631C59.5976 30.9826 59.8583 31.0086 61.0781 32.1042C61.5894 32.5629 62.1255 32.6858 63.2958 32.6114L64.8393 32.5132L64.9366 30.8068C65.0221 29.3082 64.928 28.9901 64.1645 28.193L63.2952 27.2857L64.1465 26.397C64.8666 25.6452 64.9977 25.2304 64.9977 23.704V21.8997H63.1935C61.667 21.8997 61.2523 22.0309 60.5005 22.751L59.6118 23.6023L58.7231 22.751C57.9713 22.0309 57.5566 21.8997 56.0302 21.8997H54.2259V23.583Z" fill="#B5A98F" fill-opacity="0.25"/>
<path opacity="0.5" fill-rule="evenodd" clip-rule="evenodd" d="M64.4993 2.36023C64.4993 3.75011 64.6387 4.17845 65.2913 4.7915C65.7269 5.20083 66.0834 5.69982 66.0834 5.90037C66.0834 6.10091 65.7269 6.5999 65.2913 7.00923C64.6222 7.6378 64.4993 8.03985 64.4993 9.59891V11.4447H66.1949C67.6589 11.4447 68.0305 11.3107 68.9186 10.4619L69.947 9.47915L70.9608 10.4619C71.8308 11.3053 72.2087 11.4447 73.623 11.4447H75.2711V9.64041C75.2711 8.12032 75.139 7.698 74.4319 6.95981L73.5926 6.08412L74.4319 4.98349C75.0845 4.12808 75.2711 3.52644 75.2711 2.27817V0.672852H73.4668C71.9404 0.672852 71.5257 0.804015 70.7739 1.52414L69.8852 2.37544L68.9965 1.52414C68.2447 0.804015 67.83 0.672852 66.3036 0.672852H64.4993V2.36023ZM79.1138 2.05703L77.8057 3.38989L77.8111 6.07081L77.8164 8.75174L79.0869 10.0038L80.357 11.2562L77.7445 13.8823L75.1317 16.5087L73.8429 15.244L72.5541 13.9793H69.8583H67.1625L65.9893 15.1806C65.3439 15.8415 64.8161 16.5376 64.8161 16.728C64.8161 16.9181 65.3867 17.5894 66.0843 18.2196C67.3193 19.3351 67.4191 19.3652 69.8931 19.3652H72.434L73.8714 18.0399L75.3091 16.715L77.896 19.3018L80.4828 21.8886L79.1442 23.2529L77.8057 24.6168V27.3126V30.0084L79.007 31.1816C79.6679 31.8269 80.3519 32.3548 80.5268 32.3548C80.702 32.3548 81.373 31.8143 82.0184 31.1534C83.1834 29.9602 83.1916 29.9333 83.1916 27.2844V24.6168L81.8556 23.2554L80.5192 21.8937L83.036 19.3623C84.4202 17.9699 85.6276 16.8325 85.7189 16.8344C85.8098 16.8366 86.4967 17.4069 87.2447 18.1017C88.6029 19.363 88.6095 19.3652 91.2182 19.3652H93.8316L95.1655 18.006L96.4993 16.6469L95.1401 15.3131L93.781 13.9793H91.1121H88.4432L87.1544 15.244L85.8655 16.5087L83.2572 13.8867L80.6488 11.2647L81.9202 10.0231L83.1916 8.78152V6.13418C83.1916 3.64461 83.1327 3.41397 82.2038 2.2579C81.6607 1.5818 81.0375 0.960207 80.8189 0.876567C80.6006 0.79261 79.8333 1.32391 79.1138 2.05703ZM85.7261 2.35611C85.7261 3.8138 85.8538 4.16166 86.6791 4.95213L87.6318 5.8652L86.6608 6.86698C85.7848 7.77118 85.6995 8.03573 85.7873 9.57769L85.8846 11.2863L87.5932 11.3836C89.1351 11.4713 89.3997 11.3861 90.3039 10.5101L91.3057 9.53903L92.2187 10.4917C93.0092 11.317 93.357 11.4447 94.8147 11.4447H96.498V9.64041C96.498 8.11398 96.3668 7.69926 95.6467 6.94745L94.7954 6.05878L95.6467 5.1701C96.3668 4.41829 96.498 4.00357 96.498 2.47714V0.672852H94.6937C93.1673 0.672852 92.7526 0.804015 92.0007 1.52414L91.1121 2.37544L90.2234 1.52414C89.4716 0.804015 89.0569 0.672852 87.5304 0.672852H85.7261V2.35611ZM64.4993 23.5871C64.4993 24.977 64.6387 25.4053 65.2913 26.0184C66.2861 26.953 66.2839 27.3037 65.2777 28.2491C64.5731 28.9109 64.4834 29.2265 64.5648 30.7596L64.6577 32.5132L66.2788 32.6076C67.6421 32.6868 68.0556 32.5705 68.8802 31.877C69.9118 31.0089 70.5454 31.0834 71.455 32.1789C71.7319 32.5129 72.4128 32.6716 73.5673 32.6716H75.2711V30.8673C75.2711 29.3409 75.1399 28.9261 74.4198 28.1743L73.5685 27.2857L74.4198 26.397C75.1399 25.6452 75.2711 25.2304 75.2711 23.704V21.8997H73.4668C71.9404 21.8997 71.5257 22.0309 70.7739 22.751L69.8852 23.6023L68.9965 22.751C68.2447 22.0309 67.83 21.8997 66.3036 21.8997H64.4993V23.5871ZM85.7261 23.583C85.7261 25.0407 85.8538 25.3885 86.6791 26.179L87.6318 27.0921L86.6608 28.0939C85.7848 28.9981 85.6995 29.2626 85.7873 30.8046L85.8846 32.5132L87.5909 32.6104C89.0787 32.6953 89.4101 32.5997 90.179 31.8631C91.0978 30.9826 91.3585 31.0086 92.5783 32.1042C93.0896 32.5629 93.6257 32.6858 94.796 32.6114L96.3396 32.5132L96.4368 30.8068C96.5224 29.3082 96.4283 28.9901 95.6648 28.193L94.7954 27.2857L95.6467 26.397C96.3668 25.6452 96.498 25.2304 96.498 23.704V21.8997H94.6937C93.1673 21.8997 92.7526 22.0309 92.0007 22.751L91.1121 23.6023L90.2234 22.751C89.4716 22.0309 89.0569 21.8997 87.5304 21.8997H85.7261V23.583Z" fill="#CB5534"/>
<path fill-rule="evenodd" clip-rule="evenodd" d="M95.9993 2.36023C95.9993 3.75011 96.1387 4.17845 96.7913 4.7915C97.2269 5.20083 97.5834 5.69982 97.5834 5.90037C97.5834 6.10091 97.2269 6.5999 96.7913 7.00923C96.1222 7.6378 95.9993 8.03985 95.9993 9.59891V11.4447H97.6949C99.1589 11.4447 99.5305 11.3107 100.419 10.4619L101.447 9.47915L102.461 10.4619C103.331 11.3053 103.709 11.4447 105.123 11.4447H106.771V9.64041C106.771 8.12032 106.639 7.698 105.932 6.95981L105.093 6.08412L105.932 4.98349C106.585 4.12808 106.771 3.52644 106.771 2.27817V0.672852H104.967C103.44 0.672852 103.026 0.804015 102.274 1.52414L101.385 2.37544L100.497 1.52414C99.7447 0.804015 99.33 0.672852 97.8036 0.672852H95.9993V2.36023ZM110.614 2.05703L109.306 3.38989L109.311 6.07081L109.316 8.75174L110.587 10.0038L111.857 11.2562L109.245 13.8823L106.632 16.5087L105.343 15.244L104.054 13.9793H101.358H98.6625L97.4893 15.1806C96.8439 15.8415 96.3161 16.5376 96.3161 16.728C96.3161 16.9181 96.8867 17.5894 97.5843 18.2196C98.8193 19.3351 98.9191 19.3652 101.393 19.3652H103.934L105.371 18.0399L106.809 16.715L109.396 19.3018L111.983 21.8886L110.644 23.2529L109.306 24.6168V27.3126V30.0084L110.507 31.1816C111.168 31.8269 111.852 32.3548 112.027 32.3548C112.202 32.3548 112.873 31.8143 113.518 31.1534C114.683 29.9602 114.692 29.9333 114.692 27.2844V24.6168L113.356 23.2554L112.019 21.8937L114.536 19.3623C115.92 17.9699 117.128 16.8325 117.219 16.8344C117.31 16.8366 117.997 17.4069 118.745 18.1017C120.103 19.363 120.11 19.3652 122.718 19.3652H125.332L126.665 18.006L127.999 16.6469L126.64 15.3131L125.281 13.9793H122.612H119.943L118.654 15.244L117.366 16.5087L114.757 13.8867L112.149 11.2647L113.42 10.0231L114.692 8.78152V6.13418C114.692 3.64461 114.633 3.41397 113.704 2.2579C113.161 1.5818 112.538 0.960207 112.319 0.876567C112.101 0.79261 111.333 1.32391 110.614 2.05703ZM117.226 2.35611C117.226 3.8138 117.354 4.16166 118.179 4.95213L119.132 5.8652L118.161 6.86698C117.285 7.77118 117.2 8.03573 117.287 9.57769L117.385 11.2863L119.093 11.3836C120.635 11.4713 120.9 11.3861 121.804 10.5101L122.806 9.53903L123.719 10.4917C124.509 11.317 124.857 11.4447 126.315 11.4447H127.998V9.64041C127.998 8.11398 127.867 7.69926 127.147 6.94745L126.295 6.05878L127.147 5.1701C127.867 4.41829 127.998 4.00357 127.998 2.47714V0.672852H126.194C124.667 0.672852 124.253 0.804015 123.501 1.52414L122.612 2.37544L121.723 1.52414C120.972 0.804015 120.557 0.672852 119.03 0.672852H117.226V2.35611ZM95.9993 23.5871C95.9993 24.977 96.1387 25.4053 96.7913 26.0184C97.7861 26.953 97.7839 27.3037 96.7777 28.2491C96.0731 28.9109 95.9834 29.2265 96.0648 30.7596L96.1577 32.5132L97.7788 32.6076C99.1421 32.6868 99.5556 32.5705 100.38 31.877C101.412 31.0089 102.045 31.0834 102.955 32.1789C103.232 32.5129 103.913 32.6716 105.067 32.6716H106.771V30.8673C106.771 29.3409 106.64 28.9261 105.92 28.1743L105.069 27.2857L105.92 26.397C106.64 25.6452 106.771 25.2304 106.771 23.704V21.8997H104.967C103.44 21.8997 103.026 22.0309 102.274 22.751L101.385 23.6023L100.497 22.751C99.7447 22.0309 99.33 21.8997 97.8036 21.8997H95.9993V23.5871ZM117.226 23.583C117.226 25.0407 117.354 25.3885 118.179 26.179L119.132 27.0921L118.161 28.0939C117.285 28.9981 117.2 29.2626 117.287 30.8046L117.385 32.5132L119.091 32.6104C120.579 32.6953 120.91 32.5997 121.679 31.8631C122.598 30.9826 122.859 31.0086 124.078 32.1042C124.59 32.5629 125.126 32.6858 126.296 32.6114L127.84 32.5132L127.937 30.8068C128.022 29.3082 127.928 28.9901 127.165 28.193L126.295 27.2857L127.147 26.397C127.867 25.6452 127.998 25.2304 127.998 23.704V21.8997H126.194C124.667 21.8997 124.253 22.0309 123.501 22.751L122.612 23.6023L121.723 22.751C120.972 22.0309 120.557 21.8997 119.03 21.8997H117.226V23.583Z" fill="#B5A98F" fill-opacity="0.25"/>
<path fill-rule="evenodd" clip-rule="evenodd" d="M127.5 2.36023C127.5 3.75011 127.639 4.17845 128.292 4.7915C128.727 5.20083 129.084 5.69982 129.084 5.90037C129.084 6.10091 128.727 6.5999 128.292 7.00923C127.622 7.6378 127.5 8.03985 127.5 9.59891V11.4447H129.195C130.659 11.4447 131.031 11.3107 131.919 10.4619L132.947 9.47915L133.961 10.4619C134.831 11.3053 135.209 11.4447 136.623 11.4447H138.271V9.64041C138.271 8.12032 138.139 7.698 137.432 6.95981L136.593 6.08412L137.432 4.98349C138.085 4.12808 138.271 3.52644 138.271 2.27817V0.672852H136.467C134.941 0.672852 134.526 0.804015 133.774 1.52414L132.885 2.37544L131.997 1.52414C131.245 0.804015 130.83 0.672852 129.304 0.672852H127.5V2.36023ZM142.114 2.05703L140.806 3.38989L140.811 6.07081L140.817 8.75174L142.087 10.0038L143.357 11.2562L140.745 13.8823L138.132 16.5087L136.843 15.244L135.554 13.9793H132.858H130.163L128.99 15.1806C128.344 15.8415 127.816 16.5376 127.816 16.728C127.816 16.9181 128.387 17.5894 129.085 18.2196C130.32 19.3351 130.419 19.3652 132.893 19.3652H135.434L136.872 18.0399L138.309 16.715L140.896 19.3018L143.483 21.8886L142.144 23.2529L140.806 24.6168V27.3126V30.0084L142.007 31.1816C142.668 31.8269 143.352 32.3548 143.527 32.3548C143.702 32.3548 144.373 31.8143 145.019 31.1534C146.184 29.9602 146.192 29.9333 146.192 27.2844V24.6168L144.856 23.2554L143.519 21.8937L146.036 19.3623C147.42 17.9699 148.628 16.8325 148.719 16.8344C148.81 16.8366 149.497 17.4069 150.245 18.1017C151.603 19.363 151.61 19.3652 154.218 19.3652H156.832L158.166 18.006L159.5 16.6469L158.14 15.3131L156.781 13.9793H154.112H151.443L150.155 15.244L148.866 16.5087L146.257 13.8867L143.649 11.2647L144.92 10.0231L146.192 8.78152V6.13418C146.192 3.64461 146.133 3.41397 145.204 2.2579C144.661 1.5818 144.038 0.960207 143.819 0.876567C143.601 0.79261 142.834 1.32391 142.114 2.05703ZM148.726 2.35611C148.726 3.8138 148.854 4.16166 149.679 4.95213L150.632 5.8652L149.661 6.86698C148.785 7.77118 148.7 8.03573 148.788 9.57769L148.885 11.2863L150.593 11.3836C152.135 11.4713 152.4 11.3861 153.304 10.5101L154.306 9.53903L155.219 10.4917C156.009 11.317 156.357 11.4447 157.815 11.4447H159.498V9.64041C159.498 8.11398 159.367 7.69926 158.647 6.94745L157.796 6.05878L158.647 5.1701C159.367 4.41829 159.498 4.00357 159.498 2.47714V0.672852H157.694C156.168 0.672852 155.753 0.804015 155.001 1.52414L154.112 2.37544L153.224 1.52414C152.472 0.804015 152.057 0.672852 150.531 0.672852H148.726V2.35611ZM127.5 23.5871C127.5 24.977 127.639 25.4053 128.292 26.0184C129.286 26.953 129.284 27.3037 128.278 28.2491C127.573 28.9109 127.484 29.2265 127.565 30.7596L127.658 32.5132L129.279 32.6076C130.642 32.6868 131.056 32.5705 131.88 31.877C132.912 31.0089 133.546 31.0834 134.455 32.1789C134.732 32.5129 135.413 32.6716 136.568 32.6716H138.271V30.8673C138.271 29.3409 138.14 28.9261 137.42 28.1743L136.569 27.2857L137.42 26.397C138.14 25.6452 138.271 25.2304 138.271 23.704V21.8997H136.467C134.941 21.8997 134.526 22.0309 133.774 22.751L132.885 23.6023L131.997 22.751C131.245 22.0309 130.83 21.8997 129.304 21.8997H127.5V23.5871ZM148.726 23.583C148.726 25.0407 148.854 25.3885 149.679 26.179L150.632 27.0921L149.661 28.0939C148.785 28.9981 148.7 29.2626 148.788 30.8046L148.885 32.5132L150.591 32.6104C152.079 32.6953 152.41 32.5997 153.179 31.8631C154.098 30.9826 154.359 31.0086 155.579 32.1042C156.09 32.5629 156.626 32.6858 157.796 32.6114L159.34 32.5132L159.437 30.8068C159.523 29.3082 159.429 28.9901 158.665 28.193L157.796 27.2857L158.647 26.397C159.367 25.6452 159.498 25.2304 159.498 23.704V21.8997H157.694C156.168 21.8997 155.753 22.0309 155.001 22.751L154.112 23.6023L153.224 22.751C152.472 22.0309 152.057 21.8997 150.531 21.8997H148.726V23.583Z" fill="#B5A98F" fill-opacity="0.25"/>
<path fill-rule="evenodd" clip-rule="evenodd" d="M159 2.36023C159 3.75011 159.139 4.17845 159.792 4.7915C160.227 5.20083 160.584 5.69982 160.584 5.90037C160.584 6.10091 160.227 6.5999 159.792 7.00923C159.123 7.6378 159 8.03985 159 9.59891V11.4447H160.695C162.159 11.4447 162.531 11.3107 163.419 10.4619L164.447 9.47915L165.461 10.4619C166.331 11.3053 166.709 11.4447 168.124 11.4447H169.772V9.64041C169.772 8.12032 169.639 7.698 168.932 6.95981L168.093 6.08412L168.932 4.98349C169.585 4.12808 169.772 3.52644 169.772 2.27817V0.672852H167.967C166.441 0.672852 166.026 0.804015 165.274 1.52414L164.386 2.37544L163.497 1.52414C162.745 0.804015 162.33 0.672852 160.804 0.672852H159V2.36023ZM173.614 2.05703L172.306 3.38989L172.312 6.07081L172.317 8.75174L173.587 10.0038L174.857 11.2562L172.245 13.8823L169.632 16.5087L168.343 15.244L167.055 13.9793H164.359H161.663L160.49 15.1806C159.844 15.8415 159.317 16.5376 159.317 16.728C159.317 16.9181 159.887 17.5894 160.585 18.2196C161.82 19.3351 161.92 19.3652 164.394 19.3652H166.934L168.372 18.0399L169.81 16.715L172.396 19.3018L174.983 21.8886L173.645 23.2529L172.306 24.6168V27.3126V30.0084L173.508 31.1816C174.168 31.8269 174.852 32.3548 175.027 32.3548C175.203 32.3548 175.874 31.8143 176.519 31.1534C177.684 29.9602 177.692 29.9333 177.692 27.2844V24.6168L176.356 23.2554L175.02 21.8937L177.537 19.3623C178.921 17.9699 180.128 16.8325 180.219 16.8344C180.31 16.8366 180.997 17.4069 181.745 18.1017C183.103 19.363 183.11 19.3652 185.719 19.3652H188.332L189.666 18.006L191 16.6469L189.641 15.3131L188.281 13.9793H185.613H182.944L181.655 15.244L180.366 16.5087L177.758 13.8867L175.149 11.2647L176.421 10.0231L177.692 8.78152V6.13418C177.692 3.64461 177.633 3.41397 176.704 2.2579C176.161 1.5818 175.538 0.960207 175.319 0.876567C175.101 0.79261 174.334 1.32391 173.614 2.05703ZM180.227 2.35611C180.227 3.8138 180.354 4.16166 181.18 4.95213L182.132 5.8652L181.161 6.86698C180.285 7.77118 180.2 8.03573 180.288 9.57769L180.385 11.2863L182.094 11.3836C183.636 11.4713 183.9 11.3861 184.804 10.5101L185.806 9.53903L186.719 10.4917C187.51 11.317 187.858 11.4447 189.315 11.4447H190.998V9.64041C190.998 8.11398 190.867 7.69926 190.147 6.94745L189.296 6.05878L190.147 5.1701C190.867 4.41829 190.998 4.00357 190.998 2.47714V0.672852H189.194C187.668 0.672852 187.253 0.804015 186.501 1.52414L185.613 2.37544L184.724 1.52414C183.972 0.804015 183.557 0.672852 182.031 0.672852H180.227V2.35611ZM159 23.5871C159 24.977 159.139 25.4053 159.792 26.0184C160.787 26.953 160.784 27.3037 159.778 28.2491C159.074 28.9109 158.984 29.2265 159.065 30.7596L159.158 32.5132L160.779 32.6076C162.143 32.6868 162.556 32.5705 163.381 31.877C164.412 31.0089 165.046 31.0834 165.956 32.1789C166.232 32.5129 166.913 32.6716 168.068 32.6716H169.772V30.8673C169.772 29.3409 169.64 28.9261 168.92 28.1743L168.069 27.2857L168.92 26.397C169.64 25.6452 169.772 25.2304 169.772 23.704V21.8997H167.967C166.441 21.8997 166.026 22.0309 165.274 22.751L164.386 23.6023L163.497 22.751C162.745 22.0309 162.33 21.8997 160.804 21.8997H159V23.5871ZM180.227 23.583C180.227 25.0407 180.354 25.3885 181.18 26.179L182.132 27.0921L181.161 28.0939C180.285 28.9981 180.2 29.2626 180.288 30.8046L180.385 32.5132L182.091 32.6104C183.579 32.6953 183.911 32.5997 184.68 31.8631C185.598 30.9826 185.859 31.0086 187.079 32.1042C187.59 32.5629 188.126 32.6858 189.297 32.6114L190.84 32.5132L190.937 30.8068C191.023 29.3082 190.929 28.9901 190.165 28.193L189.296 27.2857L190.147 26.397C190.867 25.6452 190.998 25.2304 190.998 23.704V21.8997H189.194C187.668 21.8997 187.253 22.0309 186.501 22.751L185.613 23.6023L184.724 22.751C183.972 22.0309 183.557 21.8997 182.031 21.8997H180.227V23.583Z" fill="#B5A98F" fill-opacity="0.25"/>
<path fill-rule="evenodd" clip-rule="evenodd" d="M190.5 2.36023C190.5 3.75011 190.639 4.17845 191.292 4.7915C191.728 5.20083 192.084 5.69982 192.084 5.90037C192.084 6.10091 191.728 6.5999 191.292 7.00923C190.623 7.6378 190.5 8.03985 190.5 9.59891V11.4447H192.196C193.66 11.4447 194.031 11.3107 194.919 10.4619L195.948 9.47915L196.962 10.4619C197.832 11.3053 198.209 11.4447 199.624 11.4447H201.272V9.64041C201.272 8.12032 201.14 7.698 200.433 6.95981L199.593 6.08412L200.433 4.98349C201.085 4.12808 201.272 3.52644 201.272 2.27817V0.672852H199.468C197.941 0.672852 197.526 0.804015 196.775 1.52414L195.886 2.37544L194.997 1.52414C194.245 0.804015 193.831 0.672852 192.304 0.672852H190.5V2.36023ZM205.115 2.05703L203.806 3.38989L203.812 6.07081L203.817 8.75174L205.088 10.0038L206.358 11.2562L203.745 13.8823L201.132 16.5087L199.844 15.244L198.555 13.9793H195.859H193.163L191.99 15.1806C191.345 15.8415 190.817 16.5376 190.817 16.728C190.817 16.9181 191.387 17.5894 192.085 18.2196C193.32 19.3351 193.42 19.3652 195.894 19.3652H198.435L199.872 18.0399L201.31 16.715L203.897 19.3018L206.484 21.8886L205.145 23.2529L203.806 24.6168V27.3126V30.0084L205.008 31.1816C205.669 31.8269 206.353 32.3548 206.528 32.3548C206.703 32.3548 207.374 31.8143 208.019 31.1534C209.184 29.9602 209.192 29.9333 209.192 27.2844V24.6168L207.856 23.2554L206.52 21.8937L209.037 19.3623C210.421 17.9699 211.628 16.8325 211.72 16.8344C211.811 16.8366 212.497 17.4069 213.245 18.1017C214.604 19.363 214.61 19.3652 217.219 19.3652H219.832L221.166 18.006L222.5 16.6469L221.141 15.3131L219.782 13.9793H217.113H214.444L213.155 15.244L211.866 16.5087L209.258 13.8867L206.65 11.2647L207.921 10.0231L209.192 8.78152V6.13418C209.192 3.64461 209.133 3.41397 208.204 2.2579C207.661 1.5818 207.038 0.960207 206.82 0.876567C206.601 0.79261 205.834 1.32391 205.115 2.05703ZM211.727 2.35611C211.727 3.8138 211.855 4.16166 212.68 4.95213L213.633 5.8652L212.661 6.86698C211.785 7.77118 211.7 8.03573 211.788 9.57769L211.885 11.2863L213.594 11.3836C215.136 11.4713 215.4 11.3861 216.305 10.5101L217.306 9.53903L218.219 10.4917C219.01 11.317 219.358 11.4447 220.815 11.4447H222.499V9.64041C222.499 8.11398 222.368 7.69926 221.647 6.94745L220.796 6.05878L221.647 5.1701C222.368 4.41829 222.499 4.00357 222.499 2.47714V0.672852H220.694C219.168 0.672852 218.753 0.804015 218.001 1.52414L217.113 2.37544L216.224 1.52414C215.472 0.804015 215.058 0.672852 213.531 0.672852H211.727V2.35611ZM190.5 23.5871C190.5 24.977 190.639 25.4053 191.292 26.0184C192.287 26.953 192.285 27.3037 191.278 28.2491C190.574 28.9109 190.484 29.2265 190.566 30.7596L190.658 32.5132L192.28 32.6076C193.643 32.6868 194.056 32.5705 194.881 31.877C195.913 31.0089 196.546 31.0834 197.456 32.1789C197.733 32.5129 198.414 32.6716 199.568 32.6716H201.272V30.8673C201.272 29.3409 201.141 28.9261 200.421 28.1743L199.569 27.2857L200.421 26.397C201.141 25.6452 201.272 25.2304 201.272 23.704V21.8997H199.468C197.941 21.8997 197.526 22.0309 196.775 22.751L195.886 23.6023L194.997 22.751C194.245 22.0309 193.831 21.8997 192.304 21.8997H190.5V23.5871ZM211.727 23.583C211.727 25.0407 211.855 25.3885 212.68 26.179L213.633 27.0921L212.661 28.0939C211.785 28.9981 211.7 29.2626 211.788 30.8046L211.885 32.5132L213.592 32.6104C215.079 32.6953 215.411 32.5997 216.18 31.8631C217.099 30.9826 217.359 31.0086 218.579 32.1042C219.09 32.5629 219.626 32.6858 220.797 32.6114L222.34 32.5132L222.438 30.8068C222.523 29.3082 222.429 28.9901 221.665 28.193L220.796 27.2857L221.647 26.397C222.368 25.6452 222.499 25.2304 222.499 23.704V21.8997H220.694C219.168 21.8997 218.753 22.0309 218.001 22.751L217.113 23.6023L216.224 22.751C215.472 22.0309 215.058 21.8997 213.531 21.8997H211.727V23.583Z" fill="#B5A98F" fill-opacity="0.25"/>
<path fill-rule="evenodd" clip-rule="evenodd" d="M222 2.36023C222 3.75011 222.14 4.17845 222.792 4.7915C223.228 5.20083 223.584 5.69982 223.584 5.90037C223.584 6.10091 223.228 6.5999 222.792 7.00923C222.123 7.6378 222 8.03985 222 9.59891V11.4447H223.696C225.16 11.4447 225.532 11.3107 226.42 10.4619L227.448 9.47915L228.462 10.4619C229.332 11.3053 229.71 11.4447 231.124 11.4447H232.772V9.64041C232.772 8.12032 232.64 7.698 231.933 6.95981L231.094 6.08412L231.933 4.98349C232.585 4.12808 232.772 3.52644 232.772 2.27817V0.672852H230.968C229.441 0.672852 229.027 0.804015 228.275 1.52414L227.386 2.37544L226.497 1.52414C225.746 0.804015 225.331 0.672852 223.805 0.672852H222V2.36023ZM236.615 2.05703L235.307 3.38989L235.312 6.07081L235.317 8.75174L236.588 10.0038L237.858 11.2562L235.245 13.8823L232.633 16.5087L231.344 15.244L230.055 13.9793H227.359H224.663L223.49 15.1806C222.845 15.8415 222.317 16.5376 222.317 16.728C222.317 16.9181 222.888 17.5894 223.585 18.2196C224.82 19.3351 224.92 19.3652 227.394 19.3652H229.935L231.372 18.0399L232.81 16.715L235.397 19.3018L237.984 21.8886L236.645 23.2529L235.307 24.6168V27.3126V30.0084L236.508 31.1816C237.169 31.8269 237.853 32.3548 238.028 32.3548C238.203 32.3548 238.874 31.8143 239.519 31.1534C240.684 29.9602 240.693 29.9333 240.693 27.2844V24.6168L239.357 23.2554L238.02 21.8937L240.537 19.3623C241.921 17.9699 243.129 16.8325 243.22 16.8344C243.311 16.8366 243.998 17.4069 244.746 18.1017C246.104 19.363 246.11 19.3652 248.719 19.3652H251.333L252.666 18.006L254 16.6469L252.641 15.3131L251.282 13.9793H248.613H245.944L244.655 15.244L243.367 16.5087L240.758 13.8867L238.15 11.2647L239.421 10.0231L240.693 8.78152V6.13418C240.693 3.64461 240.634 3.41397 239.705 2.2579C239.162 1.5818 238.539 0.960207 238.32 0.876567C238.102 0.79261 237.334 1.32391 236.615 2.05703ZM243.227 2.35611C243.227 3.8138 243.355 4.16166 244.18 4.95213L245.133 5.8652L244.162 6.86698C243.286 7.77118 243.201 8.03573 243.288 9.57769L243.386 11.2863L245.094 11.3836C246.636 11.4713 246.901 11.3861 247.805 10.5101L248.807 9.53903L249.72 10.4917C250.51 11.317 250.858 11.4447 252.316 11.4447H253.999V9.64041C253.999 8.11398 253.868 7.69926 253.148 6.94745L252.296 6.05878L253.148 5.1701C253.868 4.41829 253.999 4.00357 253.999 2.47714V0.672852H252.195C250.668 0.672852 250.254 0.804015 249.502 1.52414L248.613 2.37544L247.724 1.52414C246.973 0.804015 246.558 0.672852 245.031 0.672852H243.227V2.35611ZM222 23.5871C222 24.977 222.14 25.4053 222.792 26.0184C223.787 26.953 223.785 27.3037 222.779 28.2491C222.074 28.9109 221.984 29.2265 222.066 30.7596L222.159 32.5132L223.78 32.6076C225.143 32.6868 225.557 32.5705 226.381 31.877C227.413 31.0089 228.046 31.0834 228.956 32.1789C229.233 32.5129 229.914 32.6716 231.068 32.6716H232.772V30.8673C232.772 29.3409 232.641 28.9261 231.921 28.1743L231.069 27.2857L231.921 26.397C232.641 25.6452 232.772 25.2304 232.772 23.704V21.8997H230.968C229.441 21.8997 229.027 22.0309 228.275 22.751L227.386 23.6023L226.497 22.751C225.746 22.0309 225.331 21.8997 223.805 21.8997H222V23.5871ZM243.227 23.583C243.227 25.0407 243.355 25.3885 244.18 26.179L245.133 27.0921L244.162 28.0939C243.286 28.9981 243.201 29.2626 243.288 30.8046L243.386 32.5132L245.092 32.6104C246.58 32.6953 246.911 32.5997 247.68 31.8631C248.599 30.9826 248.86 31.0086 250.079 32.1042C250.591 32.5629 251.127 32.6858 252.297 32.6114L253.841 32.5132L253.938 30.8068C254.023 29.3082 253.929 28.9901 253.166 28.193L252.296 27.2857L253.148 26.397C253.868 25.6452 253.999 25.2304 253.999 23.704V21.8997H252.195C250.668 21.8997 250.254 22.0309 249.502 22.751L248.613 23.6023L247.724 22.751C246.973 22.0309 246.558 21.8997 245.031 21.8997H243.227V23.583Z" fill="#B5A98F" fill-opacity="0.25"/>
<path fill-rule="evenodd" clip-rule="evenodd" d="M253.5 2.36023C253.5 3.75011 253.64 4.17845 254.293 4.7915C254.728 5.20083 255.085 5.69982 255.085 5.90037C255.085 6.10091 254.728 6.5999 254.293 7.00923C253.623 7.6378 253.5 8.03985 253.5 9.59891V11.4447H255.196C256.66 11.4447 257.032 11.3107 257.92 10.4619L258.948 9.47915L259.962 10.4619C260.832 11.3053 261.21 11.4447 262.624 11.4447H264.272V9.64041C264.272 8.12032 264.14 7.698 263.433 6.95981L262.594 6.08412L263.433 4.98349C264.086 4.12808 264.272 3.52644 264.272 2.27817V0.672852H262.468C260.942 0.672852 260.527 0.804015 259.775 1.52414L258.886 2.37544L257.998 1.52414C257.246 0.804015 256.831 0.672852 255.305 0.672852H253.5V2.36023ZM268.115 2.05703L266.807 3.38989L266.812 6.07081L266.818 8.75174L268.088 10.0038L269.358 11.2562L266.746 13.8823L264.133 16.5087L262.844 15.244L261.555 13.9793H258.859H256.164L254.99 15.1806C254.345 15.8415 253.817 16.5376 253.817 16.728C253.817 16.9181 254.388 17.5894 255.086 18.2196C256.32 19.3351 256.42 19.3652 258.894 19.3652H261.435L262.873 18.0399L264.31 16.715L266.897 19.3018L269.484 21.8886L268.145 23.2529L266.807 24.6168V27.3126V30.0084L268.008 31.1816C268.669 31.8269 269.353 32.3548 269.528 32.3548C269.703 32.3548 270.374 31.8143 271.02 31.1534C272.185 29.9602 272.193 29.9333 272.193 27.2844V24.6168L270.857 23.2554L269.52 21.8937L272.037 19.3623C273.421 17.9699 274.629 16.8325 274.72 16.8344C274.811 16.8366 275.498 17.4069 276.246 18.1017C277.604 19.363 277.611 19.3652 280.219 19.3652H282.833L284.167 18.006L285.5 16.6469L284.141 15.3131L282.782 13.9793H280.113H277.444L276.156 15.244L274.867 16.5087L272.258 13.8867L269.65 11.2647L270.921 10.0231L272.193 8.78152V6.13418C272.193 3.64461 272.134 3.41397 271.205 2.2579C270.662 1.5818 270.039 0.960207 269.82 0.876567C269.602 0.79261 268.835 1.32391 268.115 2.05703ZM274.727 2.35611C274.727 3.8138 274.855 4.16166 275.68 4.95213L276.633 5.8652L275.662 6.86698C274.786 7.77118 274.701 8.03573 274.789 9.57769L274.886 11.2863L276.594 11.3836C278.136 11.4713 278.401 11.3861 279.305 10.5101L280.307 9.53903L281.22 10.4917C282.01 11.317 282.358 11.4447 283.816 11.4447H285.499V9.64041C285.499 8.11398 285.368 7.69926 284.648 6.94745L283.797 6.05878L284.648 5.1701C285.368 4.41829 285.499 4.00357 285.499 2.47714V0.672852H283.695C282.168 0.672852 281.754 0.804015 281.002 1.52414L280.113 2.37544L279.225 1.52414C278.473 0.804015 278.058 0.672852 276.532 0.672852H274.727V2.35611ZM253.5 23.5871C253.5 24.977 253.64 25.4053 254.293 26.0184C255.287 26.953 255.285 27.3037 254.279 28.2491C253.574 28.9109 253.485 29.2265 253.566 30.7596L253.659 32.5132L255.28 32.6076C256.643 32.6868 257.057 32.5705 257.881 31.877C258.913 31.0089 259.547 31.0834 260.456 32.1789C260.733 32.5129 261.414 32.6716 262.568 32.6716H264.272V30.8673C264.272 29.3409 264.141 28.9261 263.421 28.1743L262.57 27.2857L263.421 26.397C264.141 25.6452 264.272 25.2304 264.272 23.704V21.8997H262.468C260.942 21.8997 260.527 22.0309 259.775 22.751L258.886 23.6023L257.998 22.751C257.246 22.0309 256.831 21.8997 255.305 21.8997H253.5V23.5871ZM274.727 23.583C274.727 25.0407 274.855 25.3885 275.68 26.179L276.633 27.0921L275.662 28.0939C274.786 28.9981 274.701 29.2626 274.789 30.8046L274.886 32.5132L276.592 32.6104C278.08 32.6953 278.411 32.5997 279.18 31.8631C280.099 30.9826 280.36 31.0086 281.58 32.1042C282.091 32.5629 282.627 32.6858 283.797 32.6114L285.341 32.5132L285.438 30.8068C285.524 29.3082 285.43 28.9901 284.666 28.193L283.797 27.2857L284.648 26.397C285.368 25.6452 285.499 25.2304 285.499 23.704V21.8997H283.695C282.168 21.8997 281.754 22.0309 281.002 22.751L280.113 23.6023L279.225 22.751C278.473 22.0309 278.058 21.8997 276.532 21.8997H274.727V23.583Z" fill="#B5A98F" fill-opacity="0.25"/>
<path fill-rule="evenodd" clip-rule="evenodd" d="M285.001 2.36023C285.001 3.75011 285.14 4.17845 285.793 4.7915C286.228 5.20083 286.585 5.69982 286.585 5.90037C286.585 6.10091 286.228 6.5999 285.793 7.00923C285.124 7.6378 285.001 8.03985 285.001 9.59891V11.4447H286.696C288.16 11.4447 288.532 11.3107 289.42 10.4619L290.448 9.47915L291.462 10.4619C292.332 11.3053 292.71 11.4447 294.124 11.4447H295.773V9.64041C295.773 8.12032 295.64 7.698 294.933 6.95981L294.094 6.08412L294.933 4.98349C295.586 4.12808 295.773 3.52644 295.773 2.27817V0.672852H293.968C292.442 0.672852 292.027 0.804015 291.275 1.52414L290.387 2.37544L289.498 1.52414C288.746 0.804015 288.331 0.672852 286.805 0.672852H285.001V2.36023ZM299.615 2.05703L298.307 3.38989L298.313 6.07081L298.318 8.75174L299.588 10.0038L300.858 11.2562L298.246 13.8823L295.633 16.5087L294.344 15.244L293.056 13.9793H290.36H287.664L286.491 15.1806C285.845 15.8415 285.318 16.5376 285.318 16.728C285.318 16.9181 285.888 17.5894 286.586 18.2196C287.821 19.3351 287.921 19.3652 290.395 19.3652H292.935L294.373 18.0399L295.811 16.715L298.397 19.3018L300.984 21.8886L299.646 23.2529L298.307 24.6168V27.3126V30.0084L299.509 31.1816C300.169 31.8269 300.853 32.3548 301.028 32.3548C301.203 32.3548 301.875 31.8143 302.52 31.1534C303.685 29.9602 303.693 29.9333 303.693 27.2844V24.6168L302.357 23.2554L301.021 21.8937L303.537 19.3623C304.922 17.9699 306.129 16.8325 306.22 16.8344C306.311 16.8366 306.998 17.4069 307.746 18.1017C309.104 19.363 309.111 19.3652 311.72 19.3652H314.333L315.667 18.006L317.001 16.6469L315.642 15.3131L314.282 13.9793H311.614H308.945L307.656 15.244L306.367 16.5087L303.759 13.8867L301.15 11.2647L302.422 10.0231L303.693 8.78152V6.13418C303.693 3.64461 303.634 3.41397 302.705 2.2579C302.162 1.5818 301.539 0.960207 301.32 0.876567C301.102 0.79261 300.335 1.32391 299.615 2.05703ZM306.228 2.35611C306.228 3.8138 306.355 4.16166 307.181 4.95213L308.133 5.8652L307.162 6.86698C306.286 7.77118 306.201 8.03573 306.289 9.57769L306.386 11.2863L308.095 11.3836C309.637 11.4713 309.901 11.3861 310.805 10.5101L311.807 9.53903L312.72 10.4917C313.511 11.317 313.859 11.4447 315.316 11.4447H316.999V9.64041C316.999 8.11398 316.868 7.69926 316.148 6.94745L315.297 6.05878L316.148 5.1701C316.868 4.41829 316.999 4.00357 316.999 2.47714V0.672852H315.195C313.669 0.672852 313.254 0.804015 312.502 1.52414L311.614 2.37544L310.725 1.52414C309.973 0.804015 309.558 0.672852 308.032 0.672852H306.228V2.35611ZM285.001 23.5871C285.001 24.977 285.14 25.4053 285.793 26.0184C286.788 26.953 286.785 27.3037 285.779 28.2491C285.075 28.9109 284.985 29.2265 285.066 30.7596L285.159 32.5132L286.78 32.6076C288.144 32.6868 288.557 32.5705 289.382 31.877C290.413 31.0089 291.047 31.0834 291.957 32.1789C292.233 32.5129 292.914 32.6716 294.069 32.6716H295.773V30.8673C295.773 29.3409 295.641 28.9261 294.921 28.1743L294.07 27.2857L294.921 26.397C295.641 25.6452 295.773 25.2304 295.773 23.704V21.8997H293.968C292.442 21.8997 292.027 22.0309 291.275 22.751L290.387 23.6023L289.498 22.751C288.746 22.0309 288.331 21.8997 286.805 21.8997H285.001V23.5871ZM306.228 23.583C306.228 25.0407 306.355 25.3885 307.181 26.179L308.133 27.0921L307.162 28.0939C306.286 28.9981 306.201 29.2626 306.289 30.8046L306.386 32.5132L308.092 32.6104C309.58 32.6953 309.912 32.5997 310.68 31.8631C311.599 30.9826 311.86 31.0086 313.08 32.1042C313.591 32.5629 314.127 32.6858 315.298 32.6114L316.841 32.5132L316.938 30.8068C317.024 29.3082 316.93 28.9901 316.166 28.193L315.297 27.2857L316.148 26.397C316.868 25.6452 316.999 25.2304 316.999 23.704V21.8997H315.195C313.669 21.8997 313.254 22.0309 312.502 22.751L311.614 23.6023L310.725 22.751C309.973 22.0309 309.558 21.8997 308.032 21.8997H306.228V23.583Z" fill="#B5A98F" fill-opacity="0.25"/>
<path fill-rule="evenodd" clip-rule="evenodd" d="M316.501 2.36023C316.501 3.75011 316.64 4.17845 317.293 4.7915C317.729 5.20083 318.085 5.69982 318.085 5.90037C318.085 6.10091 317.729 6.5999 317.293 7.00923C316.624 7.6378 316.501 8.03985 316.501 9.59891V11.4447H318.197C319.661 11.4447 320.032 11.3107 320.92 10.4619L321.949 9.47915L322.963 10.4619C323.832 11.3053 324.21 11.4447 325.625 11.4447H327.273V9.64041C327.273 8.12032 327.141 7.698 326.434 6.95981L325.594 6.08412L326.434 4.98349C327.086 4.12808 327.273 3.52644 327.273 2.27817V0.672852H325.469C323.942 0.672852 323.527 0.804015 322.776 1.52414L321.887 2.37544L320.998 1.52414C320.246 0.804015 319.832 0.672852 318.305 0.672852H316.501V2.36023ZM331.116 2.05703L329.807 3.38989L329.813 6.07081L329.818 8.75174L331.089 10.0038L332.359 11.2562L329.746 13.8823L327.133 16.5087L325.845 15.244L324.556 13.9793H321.86H319.164L317.991 15.1806C317.346 15.8415 316.818 16.5376 316.818 16.728C316.818 16.9181 317.388 17.5894 318.086 18.2196C319.321 19.3351 319.421 19.3652 321.895 19.3652H324.436L325.873 18.0399L327.311 16.715L329.898 19.3018L332.485 21.8886L331.146 23.2529L329.807 24.6168V27.3126V30.0084L331.009 31.1816C331.67 31.8269 332.354 32.3548 332.529 32.3548C332.704 32.3548 333.375 31.8143 334.02 31.1534C335.185 29.9602 335.193 29.9333 335.193 27.2844V24.6168L333.857 23.2554L332.521 21.8937L335.038 19.3623C336.422 17.9699 337.629 16.8325 337.721 16.8344C337.811 16.8366 338.498 17.4069 339.246 18.1017C340.605 19.363 340.611 19.3652 343.22 19.3652H345.833L347.167 18.006L348.501 16.6469L347.142 15.3131L345.783 13.9793H343.114H340.445L339.156 15.244L337.867 16.5087L335.259 13.8867L332.651 11.2647L333.922 10.0231L335.193 8.78152V6.13418C335.193 3.64461 335.134 3.41397 334.205 2.2579C333.662 1.5818 333.039 0.960207 332.821 0.876567C332.602 0.79261 331.835 1.32391 331.116 2.05703ZM337.728 2.35611C337.728 3.8138 337.856 4.16166 338.681 4.95213L339.634 5.8652L338.662 6.86698C337.786 7.77118 337.701 8.03573 337.789 9.57769L337.886 11.2863L339.595 11.3836C341.137 11.4713 341.401 11.3861 342.306 10.5101L343.307 9.53903L344.22 10.4917C345.011 11.317 345.359 11.4447 346.816 11.4447H348.5V9.64041C348.5 8.11398 348.369 7.69926 347.648 6.94745L346.797 6.05878L347.648 5.1701C348.369 4.41829 348.5 4.00357 348.5 2.47714V0.672852H346.695C345.169 0.672852 344.754 0.804015 344.002 1.52414L343.114 2.37544L342.225 1.52414C341.473 0.804015 341.059 0.672852 339.532 0.672852H337.728V2.35611ZM316.501 23.5871C316.501 24.977 316.64 25.4053 317.293 26.0184C318.288 26.953 318.286 27.3037 317.279 28.2491C316.575 28.9109 316.485 29.2265 316.567 30.7596L316.659 32.5132L318.281 32.6076C319.644 32.6868 320.057 32.5705 320.882 31.877C321.914 31.0089 322.547 31.0834 323.457 32.1789C323.734 32.5129 324.414 32.6716 325.569 32.6716H327.273V30.8673C327.273 29.3409 327.142 28.9261 326.422 28.1743L325.57 27.2857L326.422 26.397C327.142 25.6452 327.273 25.2304 327.273 23.704V21.8997H325.469C323.942 21.8997 323.527 22.0309 322.776 22.751L321.887 23.6023L320.998 22.751C320.246 22.0309 319.832 21.8997 318.305 21.8997H316.501V23.5871ZM337.728 23.583C337.728 25.0407 337.856 25.3885 338.681 26.179L339.634 27.0921L338.662 28.0939C337.786 28.9981 337.701 29.2626 337.789 30.8046L337.886 32.5132L339.593 32.6104C341.08 32.6953 341.412 32.5997 342.181 31.8631C343.1 30.9826 343.36 31.0086 344.58 32.1042C345.091 32.5629 345.627 32.6858 346.798 32.6114L348.341 32.5132L348.439 30.8068C348.524 29.3082 348.43 28.9901 347.666 28.193L346.797 27.2857L347.648 26.397C348.369 25.6452 348.5 25.2304 348.5 23.704V21.8997H346.695C345.169 21.8997 344.754 22.0309 344.002 22.751L343.114 23.6023L342.225 22.751C341.473 22.0309 341.059 21.8997 339.532 21.8997H337.728V23.583Z" fill="#B5A98F" fill-opacity="0.25"/>
<path fill-rule="evenodd" clip-rule="evenodd" d="M348.001 2.36023C348.001 3.75011 348.14 4.17845 348.793 4.7915C349.229 5.20083 349.585 5.69982 349.585 5.90037C349.585 6.10091 349.229 6.5999 348.793 7.00923C348.124 7.6378 348.001 8.03985 348.001 9.59891V11.4447H349.697C351.161 11.4447 351.532 11.3107 352.42 10.4619L353.449 9.47915L354.463 10.4619C355.332 11.3053 355.71 11.4447 357.125 11.4447H358.773V9.64041C358.773 8.12032 358.641 7.698 357.934 6.95981L357.094 6.08412L357.934 4.98349C358.586 4.12808 358.773 3.52644 358.773 2.27817V0.672852H356.969C355.442 0.672852 355.027 0.804015 354.276 1.52414L353.387 2.37544L352.498 1.52414C351.746 0.804015 351.332 0.672852 349.805 0.672852H348.001V2.36023ZM362.616 2.05703L361.307 3.38989L361.313 6.07081L361.318 8.75174L362.589 10.0038L363.859 11.2562L361.246 13.8823L358.633 16.5087L357.345 15.244L356.056 13.9793H353.36H350.664L349.491 15.1806C348.846 15.8415 348.318 16.5376 348.318 16.728C348.318 16.9181 348.888 17.5894 349.586 18.2196C350.821 19.3351 350.921 19.3652 353.395 19.3652H355.936L357.373 18.0399L358.811 16.715L361.398 19.3018L363.985 21.8886L362.646 23.2529L361.307 24.6168V27.3126V30.0084L362.509 31.1816C363.17 31.8269 363.854 32.3548 364.029 32.3548C364.204 32.3548 364.875 31.8143 365.52 31.1534C366.685 29.9602 366.693 29.9333 366.693 27.2844V24.6168L365.357 23.2554L364.021 21.8937L366.538 19.3623C367.922 17.9699 369.129 16.8325 369.221 16.8344C369.311 16.8366 369.998 17.4069 370.746 18.1017C372.105 19.363 372.111 19.3652 374.72 19.3652H377.333L378.667 18.006L380.001 16.6469L378.642 15.3131L377.283 13.9793H374.614H371.945L370.656 15.244L369.367 16.5087L366.759 13.8867L364.151 11.2647L365.422 10.0231L366.693 8.78152V6.13418C366.693 3.64461 366.634 3.41397 365.705 2.2579C365.162 1.5818 364.539 0.960207 364.321 0.876567C364.102 0.79261 363.335 1.32391 362.616 2.05703ZM369.228 2.35611C369.228 3.8138 369.356 4.16166 370.181 4.95213L371.134 5.8652L370.162 6.86698C369.286 7.77118 369.201 8.03573 369.289 9.57769L369.386 11.2863L371.095 11.3836C372.637 11.4713 372.901 11.3861 373.806 10.5101L374.807 9.53903L375.72 10.4917C376.511 11.317 376.859 11.4447 378.316 11.4447H380V9.64041C380 8.11398 379.869 7.69926 379.148 6.94745L378.297 6.05878L379.148 5.1701C379.869 4.41829 380 4.00357 380 2.47714V0.672852H378.195C376.669 0.672852 376.254 0.804015 375.502 1.52414L374.614 2.37544L373.725 1.52414C372.973 0.804015 372.559 0.672852 371.032 0.672852H369.228V2.35611ZM348.001 23.5871C348.001 24.977 348.14 25.4053 348.793 26.0184C349.788 26.953 349.786 27.3037 348.779 28.2491C348.075 28.9109 347.985 29.2265 348.067 30.7596L348.159 32.5132L349.781 32.6076C351.144 32.6868 351.557 32.5705 352.382 31.877C353.414 31.0089 354.047 31.0834 354.957 32.1789C355.234 32.5129 355.914 32.6716 357.069 32.6716H358.773V30.8673C358.773 29.3409 358.642 28.9261 357.922 28.1743L357.07 27.2857L357.922 26.397C358.642 25.6452 358.773 25.2304 358.773 23.704V21.8997H356.969C355.442 21.8997 355.027 22.0309 354.276 22.751L353.387 23.6023L352.498 22.751C351.746 22.0309 351.332 21.8997 349.805 21.8997H348.001V23.5871ZM369.228 23.583C369.228 25.0407 369.356 25.3885 370.181 26.179L371.134 27.0921L370.162 28.0939C369.286 28.9981 369.201 29.2626 369.289 30.8046L369.386 32.5132L371.093 32.6104C372.58 32.6953 372.912 32.5997 373.681 31.8631C374.6 30.9826 374.86 31.0086 376.08 32.1042C376.591 32.5629 377.127 32.6858 378.298 32.6114L379.841 32.5132L379.939 30.8068C380.024 29.3082 379.93 28.9901 379.166 28.193L378.297 27.2857L379.148 26.397C379.869 25.6452 380 25.2304 380 23.704V21.8997H378.195C376.669 21.8997 376.254 22.0309 375.502 22.751L374.614 23.6023L373.725 22.751C372.973 22.0309 372.559 21.8997 371.032 21.8997H369.228V23.583Z" fill="#B5A98F" fill-opacity="0.25"/>
<path fill-rule="evenodd" clip-rule="evenodd" d="M379.501 2.36023C379.501 3.75011 379.641 4.17845 380.293 4.7915C380.729 5.20083 381.085 5.69982 381.085 5.90037C381.085 6.10091 380.729 6.5999 380.293 7.00923C379.624 7.6378 379.501 8.03985 379.501 9.59891V11.4447H381.197C382.661 11.4447 383.032 11.3107 383.921 10.4619L384.949 9.47915L385.963 10.4619C386.833 11.3053 387.211 11.4447 388.625 11.4447H390.273V9.64041C390.273 8.12032 390.141 7.698 389.434 6.95981L388.595 6.08412L389.434 4.98349C390.086 4.12808 390.273 3.52644 390.273 2.27817V0.672852H388.469C386.942 0.672852 386.528 0.804015 385.776 1.52414L384.887 2.37544L383.998 1.52414C383.247 0.804015 382.832 0.672852 381.306 0.672852H379.501V2.36023ZM394.116 2.05703L392.808 3.38989L392.813 6.07081L392.818 8.75174L394.089 10.0038L395.359 11.2562L392.746 13.8823L390.134 16.5087L388.845 15.244L387.556 13.9793H384.86H382.164L380.991 15.1806C380.346 15.8415 379.818 16.5376 379.818 16.728C379.818 16.9181 380.389 17.5894 381.086 18.2196C382.321 19.3351 382.421 19.3652 384.895 19.3652H387.436L388.873 18.0399L390.311 16.715L392.898 19.3018L395.485 21.8886L394.146 23.2529L392.808 24.6168V27.3126V30.0084L394.009 31.1816C394.67 31.8269 395.354 32.3548 395.529 32.3548C395.704 32.3548 396.375 31.8143 397.02 31.1534C398.185 29.9602 398.194 29.9333 398.194 27.2844V24.6168L396.858 23.2554L395.521 21.8937L398.038 19.3623C399.422 17.9699 400.63 16.8325 400.721 16.8344C400.812 16.8366 401.499 17.4069 402.247 18.1017C403.605 19.363 403.611 19.3652 406.22 19.3652H408.834L410.167 18.006L411.501 16.6469L410.142 15.3131L408.783 13.9793H406.114H403.445L402.156 15.244L400.867 16.5087L398.259 13.8867L395.651 11.2647L396.922 10.0231L398.194 8.78152V6.13418C398.194 3.64461 398.135 3.41397 397.206 2.2579C396.663 1.5818 396.039 0.960207 395.821 0.876567C395.603 0.79261 394.835 1.32391 394.116 2.05703ZM400.728 2.35611C400.728 3.8138 400.856 4.16166 401.681 4.95213L402.634 5.8652L401.663 6.86698C400.787 7.77118 400.701 8.03573 400.789 9.57769L400.887 11.2863L402.595 11.3836C404.137 11.4713 404.402 11.3861 405.306 10.5101L406.308 9.53903L407.221 10.4917C408.011 11.317 408.359 11.4447 409.817 11.4447H411.5V9.64041C411.5 8.11398 411.369 7.69926 410.649 6.94745L409.797 6.05878L410.649 5.1701C411.369 4.41829 411.5 4.00357 411.5 2.47714V0.672852H409.696C408.169 0.672852 407.755 0.804015 407.003 1.52414L406.114 2.37544L405.225 1.52414C404.474 0.804015 404.059 0.672852 402.532 0.672852H400.728V2.35611ZM379.501 23.5871C379.501 24.977 379.641 25.4053 380.293 26.0184C381.288 26.953 381.286 27.3037 380.28 28.2491C379.575 28.9109 379.485 29.2265 379.567 30.7596L379.66 32.5132L381.281 32.6076C382.644 32.6868 383.058 32.5705 383.882 31.877C384.914 31.0089 385.547 31.0834 386.457 32.1789C386.734 32.5129 387.415 32.6716 388.569 32.6716H390.273V30.8673C390.273 29.3409 390.142 28.9261 389.422 28.1743L388.57 27.2857L389.422 26.397C390.142 25.6452 390.273 25.2304 390.273 23.704V21.8997H388.469C386.942 21.8997 386.528 22.0309 385.776 22.751L384.887 23.6023L383.998 22.751C383.247 22.0309 382.832 21.8997 381.306 21.8997H379.501V23.5871ZM400.728 23.583C400.728 25.0407 400.856 25.3885 401.681 26.179L402.634 27.0921L401.663 28.0939C400.787 28.9981 400.701 29.2626 400.789 30.8046L400.887 32.5132L402.593 32.6104C404.081 32.6953 404.412 32.5997 405.181 31.8631C406.1 30.9826 406.361 31.0086 407.58 32.1042C408.092 32.5629 408.628 32.6858 409.798 32.6114L411.342 32.5132L411.439 30.8068C411.524 29.3082 411.43 28.9901 410.667 28.193L409.797 27.2857L410.649 26.397C411.369 25.6452 411.5 25.2304 411.5 23.704V21.8997H409.696C408.169 21.8997 407.755 22.0309 407.003 22.751L406.114 23.6023L405.225 22.751C404.474 22.0309 404.059 21.8997 402.532 21.8997H400.728V23.583Z" fill="#B5A98F" fill-opacity="0.25"/>
</svg>
