<svg width="1382" height="49" viewBox="0 0 1382 49" fill="none" xmlns="http://www.w3.org/2000/svg">
<path fill-rule="evenodd" clip-rule="evenodd" d="M25.2768 1.95396C25.9791 2.68668 26.5536 3.47691 26.5536 3.70974C26.5536 3.94258 25.9791 4.7328 25.2768 5.46553L24 6.79839L25.3657 8.22392L26.7313 9.64945L25.3543 11.0869L23.9772 12.5238L18.2499 6.81027C15.0995 3.66745 12.305 1.09627 12.0389 1.09627C11.7732 1.09627 10.2845 2.38115 8.73067 3.95113L5.90527 6.80599L11.8155 12.7305L17.7253 18.6545L16.3449 20.0953L14.9645 21.536L13.4967 20.1138L12.0294 18.6911L10.5112 20.2088L8.99346 21.727L7.55699 20.3509L6.12099 18.9753V24.8304V30.6855L7.10603 29.4334C8.34149 27.862 8.82856 27.8663 10.4926 29.4605L11.8274 30.7392L13.396 29.2191L14.9645 27.699L16.3292 29.1231C17.0795 29.9062 17.6022 30.6494 17.4906 30.7744C17.3789 30.8994 14.7317 33.5784 11.6079 36.7279L5.92807 42.4538L8.98395 45.5377L12.0403 48.6211L18.009 42.6662L23.9772 36.7108L25.3543 38.1482L26.7313 39.5856L25.4545 40.9185C24.7522 41.6512 24.1777 42.4414 24.1777 42.6742C24.1777 42.9071 24.7522 43.6973 25.4545 44.43L26.7313 45.7629L25.3657 47.1884L24 48.614H29.8798H35.7597L34.394 47.1884L33.0284 45.7629L34.3052 44.43C35.0075 43.6973 35.582 42.9071 35.582 42.6742C35.582 42.4414 35.0075 41.6512 34.3052 40.9185L33.0284 39.5856L34.4054 38.1482L35.7825 36.7108L41.7507 42.6662L47.7194 48.6211L50.7872 45.5258L53.8554 42.43L47.9446 36.5055L42.0344 30.5805L43.4148 29.1398L44.7952 27.699L46.3637 29.2191L47.9323 30.7392L49.267 29.4605C50.9311 27.8663 51.4182 27.862 52.6536 29.4334L53.6387 30.6855V24.8304V18.9753L52.2108 20.3433L50.7834 21.7109L49.2148 20.1908L47.6462 18.6707L46.2668 20.1105L44.8874 21.5503L43.4504 20.1128L42.013 18.6759L47.9337 12.741L53.8544 6.80599L51.029 3.95113C49.4752 2.38115 47.9865 1.09627 47.7208 1.09627C47.4547 1.09627 44.6602 3.66745 41.5098 6.81027L35.7825 12.5238L34.4054 11.0869L33.0284 9.64945L34.394 8.22392L35.7597 6.79839L34.4829 5.46553C32.9001 3.81334 32.8839 3.22981 34.394 2.24049C35.0474 1.81236 35.582 1.27304 35.582 1.04163C35.582 0.810219 32.9761 0.621094 29.791 0.621094H24L25.2768 1.95396ZM23.5429 18.5205C23.4269 18.6365 22.1863 18.6655 20.7854 18.5856L18.238 18.4402L20.8515 15.8268L23.465 13.2133L23.6089 15.7617C23.6883 17.1634 23.6583 18.4051 23.5429 18.5205ZM38.9319 15.6671C41.6818 18.7253 41.6847 18.6778 38.7286 18.6778H36.0571V16.0477C36.0571 13.6875 36.1427 13.4637 36.8887 13.8685C37.3458 14.1166 38.2658 14.9258 38.9319 15.6671ZM23.7025 33.5109V36.4646L21.1109 33.9053C19.6859 32.4974 18.6291 31.1683 18.7631 30.9516C18.8971 30.7345 20.0632 30.5572 21.3547 30.5572H23.7025V33.5109ZM40.9966 30.9516C41.1306 31.1683 40.0738 32.4974 38.6488 33.9053L36.0571 36.4646V33.8279C36.0571 32.3772 36.1997 31.0481 36.3741 30.8742C36.8298 30.418 40.7068 30.4831 40.9966 30.9516Z" fill="#726E2C"/>
<path fill-rule="evenodd" clip-rule="evenodd" d="M72.5004 1.95396C73.2027 2.68668 73.7772 3.47691 73.7772 3.70974C73.7772 3.94258 73.2027 4.7328 72.5004 5.46553L71.2236 6.79839L72.5893 8.22392L73.955 9.64945L72.5779 11.0869L71.2008 12.5238L65.4735 6.81027C62.3231 3.66745 59.5286 1.09627 59.2625 1.09627C58.9969 1.09627 57.5081 2.38115 55.9543 3.95113L53.1289 6.80599L59.0392 12.7305L64.9489 18.6545L63.5685 20.0953L62.1882 21.536L60.7203 20.1138L59.253 18.6911L57.7348 20.2088L56.2171 21.727L54.7806 20.3509L53.3446 18.9753V24.8304V30.6855L54.3297 29.4334C55.5651 27.862 56.0522 27.8663 57.7163 29.4605L59.051 30.7392L60.6196 29.2191L62.1882 27.699L63.5529 29.1231C64.3032 29.9062 64.8259 30.6494 64.7142 30.7744C64.6025 30.8994 61.9553 33.5784 58.8315 36.7279L53.1517 42.4538L56.2076 45.5377L59.2639 48.6211L65.2326 42.6662L71.2008 36.7108L72.5779 38.1482L73.955 39.5856L72.6782 40.9185C71.9758 41.6512 71.4013 42.4414 71.4013 42.6742C71.4013 42.9071 71.9758 43.6973 72.6782 44.43L73.955 45.7629L72.5893 47.1884L71.2236 48.614H77.1035H82.9833L81.6177 47.1884L80.252 45.7629L81.5288 44.43C82.2311 43.6973 82.8056 42.9071 82.8056 42.6742C82.8056 42.4414 82.2311 41.6512 81.5288 40.9185L80.252 39.5856L81.629 38.1482L83.0061 36.7108L88.9743 42.6662L94.9431 48.6211L98.0108 45.5258L101.079 42.43L95.1683 36.5055L89.258 30.5805L90.6384 29.1398L92.0188 27.699L93.5874 29.2191L95.1559 30.7392L96.4907 29.4605C98.1548 27.8663 98.6418 27.862 99.8773 29.4334L100.862 30.6855V24.8304V18.9753L99.4344 20.3433L98.007 21.7109L96.4384 20.1908L94.8699 18.6707L93.4904 20.1105L92.111 21.5503L90.6741 20.1128L89.2366 18.6759L95.1573 12.741L101.078 6.80599L98.2526 3.95113C96.6988 2.38115 95.2101 1.09627 94.9445 1.09627C94.6784 1.09627 91.8839 3.66745 88.7334 6.81027L83.0061 12.5238L81.629 11.0869L80.252 9.64945L81.6177 8.22392L82.9833 6.79839L81.7065 5.46553C80.1237 3.81334 80.1075 3.22981 81.6177 2.24049C82.271 1.81236 82.8056 1.27304 82.8056 1.04163C82.8056 0.810219 80.1997 0.621094 77.0146 0.621094H71.2236L72.5004 1.95396ZM70.7665 18.5205C70.6506 18.6365 69.4099 18.6655 68.0091 18.5856L65.4616 18.4402L68.0751 15.8268L70.6886 13.2133L70.8326 15.7617C70.9119 17.1634 70.882 18.4051 70.7665 18.5205ZM86.1556 15.6671C88.9054 18.7253 88.9083 18.6778 85.9522 18.6778H83.2808V16.0477C83.2808 13.6875 83.3663 13.4637 84.1123 13.8685C84.5694 14.1166 85.4894 14.9258 86.1556 15.6671ZM70.9262 33.5109V36.4646L68.3346 33.9053C66.9095 32.4974 65.8527 31.1683 65.9867 30.9516C66.1207 30.7345 67.2868 30.5572 68.5783 30.5572H70.9262V33.5109ZM88.2202 30.9516C88.3542 31.1683 87.2975 32.4974 85.8724 33.9053L83.2808 36.4646V33.8279C83.2808 32.3772 83.4233 31.0481 83.5977 30.8742C84.0534 30.418 87.9304 30.4831 88.2202 30.9516Z" fill="#726E2C"/>
<path fill-rule="evenodd" clip-rule="evenodd" d="M119.723 1.95396C120.425 2.68668 121 3.47691 121 3.70974C121 3.94258 120.425 4.7328 119.723 5.46553L118.446 6.79839L119.812 8.22392L121.178 9.64945L119.801 11.0869L118.423 12.5238L112.696 6.81027C109.546 3.66745 106.751 1.09627 106.485 1.09627C106.22 1.09627 104.731 2.38115 103.177 3.95113L100.352 6.80599L106.262 12.7305L112.172 18.6545L110.791 20.0953L109.411 21.536L107.943 20.1138L106.476 18.6911L104.957 20.2088L103.44 21.727L102.003 20.3509L100.567 18.9753V24.8304V30.6855L101.552 29.4334C102.788 27.862 103.275 27.8663 104.939 29.4605L106.274 30.7392L107.842 29.2191L109.411 27.699L110.776 29.1231C111.526 29.9062 112.049 30.6494 111.937 30.7744C111.825 30.8994 109.178 33.5784 106.054 36.7279L100.374 42.4538L103.43 45.5377L106.487 48.6211L112.455 42.6662L118.423 36.7108L119.801 38.1482L121.178 39.5856L119.901 40.9185C119.198 41.6512 118.624 42.4414 118.624 42.6742C118.624 42.9071 119.198 43.6973 119.901 44.43L121.178 45.7629L119.812 47.1884L118.446 48.614H124.326H130.206L128.84 47.1884L127.475 45.7629L128.751 44.43C129.454 43.6973 130.028 42.9071 130.028 42.6742C130.028 42.4414 129.454 41.6512 128.751 40.9185L127.475 39.5856L128.852 38.1482L130.229 36.7108L136.197 42.6662L142.166 48.6211L145.233 45.5258L148.302 42.43L142.391 36.5055L136.481 30.5805L137.861 29.1398L139.241 27.699L140.81 29.2191L142.379 30.7392L143.713 29.4605C145.377 27.8663 145.864 27.862 147.1 29.4334L148.085 30.6855V24.8304V18.9753L146.657 20.3433L145.23 21.7109L143.661 20.1908L142.093 18.6707L140.713 20.1105L139.334 21.5503L137.897 20.1128L136.459 18.6759L142.38 12.741L148.301 6.80599L145.475 3.95113C143.921 2.38115 142.433 1.09627 142.167 1.09627C141.901 1.09627 139.107 3.66745 135.956 6.81027L130.229 12.5238L128.852 11.0869L127.475 9.64945L128.84 8.22392L130.206 6.79839L128.929 5.46553C127.346 3.81334 127.33 3.22981 128.84 2.24049C129.494 1.81236 130.028 1.27304 130.028 1.04163C130.028 0.810219 127.422 0.621094 124.237 0.621094H118.446L119.723 1.95396ZM117.989 18.5205C117.873 18.6365 116.633 18.6655 115.232 18.5856L112.684 18.4402L115.298 15.8268L117.911 13.2133L118.055 15.7617C118.135 17.1634 118.105 18.4051 117.989 18.5205ZM133.378 15.6671C136.128 18.7253 136.131 18.6778 133.175 18.6778H130.503V16.0477C130.503 13.6875 130.589 13.4637 131.335 13.8685C131.792 14.1166 132.712 14.9258 133.378 15.6671ZM118.149 33.5109V36.4646L115.557 33.9053C114.132 32.4974 113.075 31.1683 113.209 30.9516C113.343 30.7345 114.509 30.5572 115.801 30.5572H118.149V33.5109ZM135.443 30.9516C135.577 31.1683 134.52 32.4974 133.095 33.9053L130.503 36.4646V33.8279C130.503 32.3772 130.646 31.0481 130.82 30.8742C131.276 30.418 135.153 30.4831 135.443 30.9516Z" fill="#726E2C"/>
<path fill-rule="evenodd" clip-rule="evenodd" d="M166.946 1.95396C167.648 2.68668 168.223 3.47691 168.223 3.70974C168.223 3.94258 167.648 4.7328 166.946 5.46553L165.669 6.79839L167.035 8.22392L168.4 9.64945L167.023 11.0869L165.646 12.5238L159.919 6.81027C156.768 3.66745 153.974 1.09627 153.708 1.09627C153.442 1.09627 151.953 2.38115 150.4 3.95113L147.574 6.80599L153.484 12.7305L159.394 18.6545L158.014 20.0953L156.633 21.536L155.166 20.1138L153.698 18.6911L152.18 20.2088L150.662 21.727L149.226 20.3509L147.79 18.9753V24.8304V30.6855L148.775 29.4334C150.01 27.862 150.498 27.8663 152.162 29.4605L153.496 30.7392L155.065 29.2191L156.633 27.699L157.998 29.1231C158.748 29.9062 159.271 30.6494 159.159 30.7744C159.048 30.8994 156.401 33.5784 153.277 36.7279L147.597 42.4538L150.653 45.5377L153.709 48.6211L159.678 42.6662L165.646 36.7108L167.023 38.1482L168.4 39.5856L167.123 40.9185C166.421 41.6512 165.847 42.4414 165.847 42.6742C165.847 42.9071 166.421 43.6973 167.123 44.43L168.4 45.7629L167.035 47.1884L165.669 48.614H171.549H177.429L176.063 47.1884L174.697 45.7629L175.974 44.43C176.676 43.6973 177.251 42.9071 177.251 42.6742C177.251 42.4414 176.676 41.6512 175.974 40.9185L174.697 39.5856L176.074 38.1482L177.451 36.7108L183.42 42.6662L189.388 48.6211L192.456 45.5258L195.524 42.43L189.614 36.5055L183.703 30.5805L185.084 29.1398L186.464 27.699L188.033 29.2191L189.601 30.7392L190.936 29.4605C192.6 27.8663 193.087 27.862 194.323 29.4334L195.308 30.6855V24.8304V18.9753L193.88 20.3433L192.452 21.7109L190.884 20.1908L189.315 18.6707L187.936 20.1105L186.556 21.5503L185.119 20.1128L183.682 18.6759L189.603 12.741L195.523 6.80599L192.698 3.95113C191.144 2.38115 189.655 1.09627 189.39 1.09627C189.124 1.09627 186.329 3.66745 183.179 6.81027L177.451 12.5238L176.074 11.0869L174.697 9.64945L176.063 8.22392L177.429 6.79839L176.152 5.46553C174.569 3.81334 174.553 3.22981 176.063 2.24049C176.716 1.81236 177.251 1.27304 177.251 1.04163C177.251 0.810219 174.645 0.621094 171.46 0.621094H165.669L166.946 1.95396ZM165.212 18.5205C165.096 18.6365 163.855 18.6655 162.454 18.5856L159.907 18.4402L162.52 15.8268L165.134 13.2133L165.278 15.7617C165.357 17.1634 165.327 18.4051 165.212 18.5205ZM180.601 15.6671C183.351 18.7253 183.354 18.6778 180.398 18.6778H177.726V16.0477C177.726 13.6875 177.812 13.4637 178.558 13.8685C179.015 14.1166 179.935 14.9258 180.601 15.6671ZM165.371 33.5109V36.4646L162.78 33.9053C161.355 32.4974 160.298 31.1683 160.432 30.9516C160.566 30.7345 161.732 30.5572 163.024 30.5572H165.371V33.5109ZM182.666 30.9516C182.8 31.1683 181.743 32.4974 180.318 33.9053L177.726 36.4646V33.8279C177.726 32.3772 177.869 31.0481 178.043 30.8742C178.499 30.418 182.376 30.4831 182.666 30.9516Z" fill="#726E2C"/>
<path fill-rule="evenodd" clip-rule="evenodd" d="M214.168 1.95396C214.871 2.68668 215.445 3.47691 215.445 3.70974C215.445 3.94258 214.871 4.7328 214.168 5.46553L212.892 6.79839L214.257 8.22392L215.623 9.64945L214.246 11.0869L212.869 12.5238L207.141 6.81027C203.991 3.66745 201.197 1.09627 200.93 1.09627C200.665 1.09627 199.176 2.38115 197.622 3.95113L194.797 6.80599L200.707 12.7305L206.617 18.6545L205.236 20.0953L203.856 21.536L202.388 20.1138L200.921 18.6911L199.403 20.2088L197.885 21.727L196.449 20.3509L195.013 18.9753V24.8304V30.6855L195.998 29.4334C197.233 27.862 197.72 27.8663 199.384 29.4605L200.719 30.7392L202.288 29.2191L203.856 27.699L205.221 29.1231C205.971 29.9062 206.494 30.6494 206.382 30.7744C206.27 30.8994 203.623 33.5784 200.499 36.7279L194.82 42.4538L197.876 45.5377L200.932 48.6211L206.901 42.6662L212.869 36.7108L214.246 38.1482L215.623 39.5856L214.346 40.9185C213.644 41.6512 213.069 42.4414 213.069 42.6742C213.069 42.9071 213.644 43.6973 214.346 44.43L215.623 45.7629L214.257 47.1884L212.892 48.614H218.771H224.651L223.286 47.1884L221.92 45.7629L223.197 44.43C223.899 43.6973 224.474 42.9071 224.474 42.6742C224.474 42.4414 223.899 41.6512 223.197 40.9185L221.92 39.5856L223.297 38.1482L224.674 36.7108L230.642 42.6662L236.611 48.6211L239.679 45.5258L242.747 42.43L236.836 36.5055L230.926 30.5805L232.306 29.1398L233.687 27.699L235.255 29.2191L236.824 30.7392L238.159 29.4605C239.823 27.8663 240.31 27.862 241.545 29.4334L242.53 30.6855V24.8304V18.9753L241.102 20.3433L239.675 21.7109L238.106 20.1908L236.538 18.6707L235.158 20.1105L233.779 21.5503L232.342 20.1128L230.905 18.6759L236.825 12.741L242.746 6.80599L239.921 3.95113C238.367 2.38115 236.878 1.09627 236.612 1.09627C236.346 1.09627 233.552 3.66745 230.401 6.81027L224.674 12.5238L223.297 11.0869L221.92 9.64945L223.286 8.22392L224.651 6.79839L223.374 5.46553C221.792 3.81334 221.776 3.22981 223.286 2.24049C223.939 1.81236 224.474 1.27304 224.474 1.04163C224.474 0.810219 221.868 0.621094 218.683 0.621094H212.892L214.168 1.95396ZM212.434 18.5205C212.319 18.6365 211.078 18.6655 209.677 18.5856L207.13 18.4402L209.743 15.8268L212.357 13.2133L212.501 15.7617C212.58 17.1634 212.55 18.4051 212.434 18.5205ZM227.824 15.6671C230.573 18.7253 230.576 18.6778 227.62 18.6778H224.949V16.0477C224.949 13.6875 225.034 13.4637 225.78 13.8685C226.237 14.1166 227.157 14.9258 227.824 15.6671ZM212.594 33.5109V36.4646L210.003 33.9053C208.577 32.4974 207.521 31.1683 207.655 30.9516C207.789 30.7345 208.955 30.5572 210.246 30.5572H212.594V33.5109ZM229.888 30.9516C230.022 31.1683 228.965 32.4974 227.54 33.9053L224.949 36.4646V33.8279C224.949 32.3772 225.091 31.0481 225.266 30.8742C225.721 30.418 229.598 30.4831 229.888 30.9516Z" fill="#726E2C"/>
<path fill-rule="evenodd" clip-rule="evenodd" d="M261.391 1.95396C262.093 2.68668 262.668 3.47691 262.668 3.70974C262.668 3.94258 262.093 4.7328 261.391 5.46553L260.114 6.79839L261.48 8.22392L262.846 9.64945L261.469 11.0869L260.091 12.5238L254.364 6.81027C251.214 3.66745 248.419 1.09627 248.153 1.09627C247.887 1.09627 246.399 2.38115 244.845 3.95113L242.02 6.80599L247.93 12.7305L253.84 18.6545L252.459 20.0953L251.079 21.536L249.611 20.1138L248.144 18.6911L246.625 20.2088L245.108 21.727L243.671 20.3509L242.235 18.9753V24.8304V30.6855L243.22 29.4334C244.456 27.862 244.943 27.8663 246.607 29.4605L247.942 30.7392L249.51 29.2191L251.079 27.699L252.443 29.1231C253.194 29.9062 253.716 30.6494 253.605 30.7744C253.493 30.8994 250.846 33.5784 247.722 36.7279L242.042 42.4538L245.098 45.5377L248.155 48.6211L254.123 42.6662L260.091 36.7108L261.469 38.1482L262.846 39.5856L261.569 40.9185C260.866 41.6512 260.292 42.4414 260.292 42.6742C260.292 42.9071 260.866 43.6973 261.569 44.43L262.846 45.7629L261.48 47.1884L260.114 48.614H265.994H271.874L270.508 47.1884L269.143 45.7629L270.419 44.43C271.122 43.6973 271.696 42.9071 271.696 42.6742C271.696 42.4414 271.122 41.6512 270.419 40.9185L269.143 39.5856L270.52 38.1482L271.897 36.7108L277.865 42.6662L283.834 48.6211L286.901 45.5258L289.97 42.43L284.059 36.5055L278.149 30.5805L279.529 29.1398L280.909 27.699L282.478 29.2191L284.047 30.7392L285.381 29.4605C287.045 27.8663 287.532 27.862 288.768 29.4334L289.753 30.6855V24.8304V18.9753L288.325 20.3433L286.898 21.7109L285.329 20.1908L283.761 18.6707L282.381 20.1105L281.002 21.5503L279.565 20.1128L278.127 18.6759L284.048 12.741L289.969 6.80599L287.143 3.95113C285.589 2.38115 284.101 1.09627 283.835 1.09627C283.569 1.09627 280.774 3.66745 277.624 6.81027L271.897 12.5238L270.52 11.0869L269.143 9.64945L270.508 8.22392L271.874 6.79839L270.597 5.46553C269.014 3.81334 268.998 3.22981 270.508 2.24049C271.162 1.81236 271.696 1.27304 271.696 1.04163C271.696 0.810219 269.09 0.621094 265.905 0.621094H260.114L261.391 1.95396ZM259.657 18.5205C259.541 18.6365 258.301 18.6655 256.9 18.5856L254.352 18.4402L256.966 15.8268L259.579 13.2133L259.723 15.7617C259.803 17.1634 259.773 18.4051 259.657 18.5205ZM275.046 15.6671C277.796 18.7253 277.799 18.6778 274.843 18.6778H272.171V16.0477C272.171 13.6875 272.257 13.4637 273.003 13.8685C273.46 14.1166 274.38 14.9258 275.046 15.6671ZM259.817 33.5109V36.4646L257.225 33.9053C255.8 32.4974 254.743 31.1683 254.877 30.9516C255.011 30.7345 256.177 30.5572 257.469 30.5572H259.817V33.5109ZM277.111 30.9516C277.245 31.1683 276.188 32.4974 274.763 33.9053L272.171 36.4646V33.8279C272.171 32.3772 272.314 31.0481 272.488 30.8742C272.944 30.418 276.821 30.4831 277.111 30.9516Z" fill="#726E2C"/>
<path fill-rule="evenodd" clip-rule="evenodd" d="M308.614 1.95396C309.316 2.68668 309.891 3.47691 309.891 3.70974C309.891 3.94258 309.316 4.7328 308.614 5.46553L307.337 6.79839L308.703 8.22392L310.068 9.64945L308.691 11.0869L307.314 12.5238L301.587 6.81027C298.436 3.66745 295.642 1.09627 295.376 1.09627C295.11 1.09627 293.621 2.38115 292.068 3.95113L289.242 6.80599L295.152 12.7305L301.062 18.6545L299.682 20.0953L298.301 21.536L296.834 20.1138L295.366 18.6911L293.848 20.2088L292.33 21.727L290.894 20.3509L289.458 18.9753V24.8304V30.6855L290.443 29.4334C291.678 27.862 292.165 27.8663 293.83 29.4605L295.164 30.7392L296.733 29.2191L298.301 27.699L299.666 29.1231C300.416 29.9062 300.939 30.6494 300.827 30.7744C300.716 30.8994 298.069 33.5784 294.945 36.7279L289.265 42.4538L292.321 45.5377L295.377 48.6211L301.346 42.6662L307.314 36.7108L308.691 38.1482L310.068 39.5856L308.791 40.9185C308.089 41.6512 307.515 42.4414 307.515 42.6742C307.515 42.9071 308.089 43.6973 308.791 44.43L310.068 45.7629L308.703 47.1884L307.337 48.614H313.217H319.097L317.731 47.1884L316.365 45.7629L317.642 44.43C318.344 43.6973 318.919 42.9071 318.919 42.6742C318.919 42.4414 318.344 41.6512 317.642 40.9185L316.365 39.5856L317.742 38.1482L319.119 36.7108L325.088 42.6662L331.056 48.6211L334.124 45.5258L337.192 42.43L331.282 36.5055L325.371 30.5805L326.752 29.1398L328.132 27.699L329.701 29.2191L331.269 30.7392L332.604 29.4605C334.268 27.8663 334.755 27.862 335.991 29.4334L336.976 30.6855V24.8304V18.9753L335.548 20.3433L334.12 21.7109L332.552 20.1908L330.983 18.6707L329.604 20.1105L328.224 21.5503L326.787 20.1128L325.35 18.6759L331.271 12.741L337.191 6.80599L334.366 3.95113C332.812 2.38115 331.323 1.09627 331.058 1.09627C330.792 1.09627 327.997 3.66745 324.847 6.81027L319.119 12.5238L317.742 11.0869L316.365 9.64945L317.731 8.22392L319.097 6.79839L317.82 5.46553C316.237 3.81334 316.221 3.22981 317.731 2.24049C318.384 1.81236 318.919 1.27304 318.919 1.04163C318.919 0.810219 316.313 0.621094 313.128 0.621094H307.337L308.614 1.95396ZM306.88 18.5205C306.764 18.6365 305.523 18.6655 304.122 18.5856L301.575 18.4402L304.188 15.8268L306.802 13.2133L306.946 15.7617C307.025 17.1634 306.995 18.4051 306.88 18.5205ZM322.269 15.6671C325.019 18.7253 325.022 18.6778 322.065 18.6778H319.394V16.0477C319.394 13.6875 319.48 13.4637 320.226 13.8685C320.683 14.1166 321.603 14.9258 322.269 15.6671ZM307.039 33.5109V36.4646L304.448 33.9053C303.023 32.4974 301.966 31.1683 302.1 30.9516C302.234 30.7345 303.4 30.5572 304.692 30.5572H307.039V33.5109ZM324.334 30.9516C324.468 31.1683 323.411 32.4974 321.986 33.9053L319.394 36.4646V33.8279C319.394 32.3772 319.537 31.0481 319.711 30.8742C320.167 30.418 324.044 30.4831 324.334 30.9516Z" fill="#726E2C"/>
<path fill-rule="evenodd" clip-rule="evenodd" d="M355.837 1.95396C356.54 2.68668 357.114 3.47691 357.114 3.70974C357.114 3.94258 356.54 4.7328 355.837 5.46553L354.561 6.79839L355.926 8.22392L357.292 9.64945L355.915 11.0869L354.538 12.5238L348.81 6.81027C345.66 3.66745 342.866 1.09627 342.599 1.09627C342.334 1.09627 340.845 2.38115 339.291 3.95113L336.466 6.80599L342.376 12.7305L348.286 18.6545L346.905 20.0953L345.525 21.536L344.057 20.1138L342.59 18.6911L341.072 20.2088L339.554 21.727L338.118 20.3509L336.682 18.9753V24.8304V30.6855L337.667 29.4334C338.902 27.862 339.389 27.8663 341.053 29.4605L342.388 30.7392L343.956 29.2191L345.525 27.699L346.89 29.1231C347.64 29.9062 348.163 30.6494 348.051 30.7744C347.939 30.8994 345.292 33.5784 342.168 36.7279L336.489 42.4538L339.544 45.5377L342.601 48.6211L348.57 42.6662L354.538 36.7108L355.915 38.1482L357.292 39.5856L356.015 40.9185C355.313 41.6512 354.738 42.4414 354.738 42.6742C354.738 42.9071 355.313 43.6973 356.015 44.43L357.292 45.7629L355.926 47.1884L354.561 48.614H360.44H366.32L364.955 47.1884L363.589 45.7629L364.866 44.43C365.568 43.6973 366.143 42.9071 366.143 42.6742C366.143 42.4414 365.568 41.6512 364.866 40.9185L363.589 39.5856L364.966 38.1482L366.343 36.7108L372.311 42.6662L378.28 48.6211L381.348 45.5258L384.416 42.43L378.505 36.5055L372.595 30.5805L373.975 29.1398L375.356 27.699L376.924 29.2191L378.493 30.7392L379.828 29.4605C381.492 27.8663 381.979 27.862 383.214 29.4334L384.199 30.6855V24.8304V18.9753L382.771 20.3433L381.344 21.7109L379.775 20.1908L378.207 18.6707L376.827 20.1105L375.448 21.5503L374.011 20.1128L372.574 18.6759L378.494 12.741L384.415 6.80599L381.59 3.95113C380.036 2.38115 378.547 1.09627 378.281 1.09627C378.015 1.09627 375.221 3.66745 372.07 6.81027L366.343 12.5238L364.966 11.0869L363.589 9.64945L364.955 8.22392L366.32 6.79839L365.043 5.46553C363.461 3.81334 363.444 3.22981 364.955 2.24049C365.608 1.81236 366.143 1.27304 366.143 1.04163C366.143 0.810219 363.537 0.621094 360.352 0.621094H354.561L355.837 1.95396ZM354.103 18.5205C353.987 18.6365 352.747 18.6655 351.346 18.5856L348.799 18.4402L351.412 15.8268L354.025 13.2133L354.169 15.7617C354.249 17.1634 354.219 18.4051 354.103 18.5205ZM369.492 15.6671C372.242 18.7253 372.245 18.6778 369.289 18.6778H366.618V16.0477C366.618 13.6875 366.703 13.4637 367.449 13.8685C367.906 14.1166 368.826 14.9258 369.492 15.6671ZM354.263 33.5109V36.4646L351.671 33.9053C350.246 32.4974 349.19 31.1683 349.324 30.9516C349.458 30.7345 350.624 30.5572 351.915 30.5572H354.263V33.5109ZM371.557 30.9516C371.691 31.1683 370.634 32.4974 369.209 33.9053L366.618 36.4646V33.8279C366.618 32.3772 366.76 31.0481 366.935 30.8742C367.39 30.418 371.267 30.4831 371.557 30.9516Z" fill="#726E2C"/>
<path fill-rule="evenodd" clip-rule="evenodd" d="M403.06 1.95396C403.762 2.68668 404.337 3.47691 404.337 3.70974C404.337 3.94258 403.762 4.7328 403.06 5.46553L401.783 6.79839L403.149 8.22392L404.515 9.64945L403.137 11.0869L401.76 12.5238L396.033 6.81027C392.883 3.66745 390.088 1.09627 389.822 1.09627C389.556 1.09627 388.068 2.38115 386.514 3.95113L383.688 6.80599L389.599 12.7305L395.509 18.6545L394.128 20.0953L392.748 21.536L391.28 20.1138L389.813 18.6911L388.294 20.2088L386.777 21.727L385.34 20.3509L383.904 18.9753V24.8304V30.6855L384.889 29.4334C386.125 27.862 386.612 27.8663 388.276 29.4605L389.611 30.7392L391.179 29.2191L392.748 27.699L394.112 29.1231C394.863 29.9062 395.385 30.6494 395.274 30.7744C395.162 30.8994 392.515 33.5784 389.391 36.7279L383.711 42.4538L386.767 45.5377L389.823 48.6211L395.792 42.6662L401.76 36.7108L403.137 38.1482L404.515 39.5856L403.238 40.9185C402.535 41.6512 401.961 42.4414 401.961 42.6742C401.961 42.9071 402.535 43.6973 403.238 44.43L404.515 45.7629L403.149 47.1884L401.783 48.614H407.663H413.543L412.177 47.1884L410.812 45.7629L412.088 44.43C412.791 43.6973 413.365 42.9071 413.365 42.6742C413.365 42.4414 412.791 41.6512 412.088 40.9185L410.812 39.5856L412.189 38.1482L413.566 36.7108L419.534 42.6662L425.503 48.6211L428.57 45.5258L431.639 42.43L425.728 36.5055L419.818 30.5805L421.198 29.1398L422.578 27.699L424.147 29.2191L425.715 30.7392L427.05 29.4605C428.714 27.8663 429.201 27.862 430.437 29.4334L431.422 30.6855V24.8304V18.9753L429.994 20.3433L428.567 21.7109L426.998 20.1908L425.429 18.6707L424.05 20.1105L422.671 21.5503L421.234 20.1128L419.796 18.6759L425.717 12.741L431.638 6.80599L428.812 3.95113C427.258 2.38115 425.77 1.09627 425.504 1.09627C425.238 1.09627 422.443 3.66745 419.293 6.81027L413.566 12.5238L412.189 11.0869L410.812 9.64945L412.177 8.22392L413.543 6.79839L412.266 5.46553C410.683 3.81334 410.667 3.22981 412.177 2.24049C412.831 1.81236 413.365 1.27304 413.365 1.04163C413.365 0.810219 410.759 0.621094 407.574 0.621094H401.783L403.06 1.95396ZM401.326 18.5205C401.21 18.6365 399.969 18.6655 398.569 18.5856L396.021 18.4402L398.635 15.8268L401.248 13.2133L401.392 15.7617C401.472 17.1634 401.442 18.4051 401.326 18.5205ZM416.715 15.6671C419.465 18.7253 419.468 18.6778 416.512 18.6778H413.84V16.0477C413.84 13.6875 413.926 13.4637 414.672 13.8685C415.129 14.1166 416.049 14.9258 416.715 15.6671ZM401.486 33.5109V36.4646L398.894 33.9053C397.469 32.4974 396.412 31.1683 396.546 30.9516C396.68 30.7345 397.846 30.5572 399.138 30.5572H401.486V33.5109ZM418.78 30.9516C418.914 31.1683 417.857 32.4974 416.432 33.9053L413.84 36.4646V33.8279C413.84 32.3772 413.983 31.0481 414.157 30.8742C414.613 30.418 418.49 30.4831 418.78 30.9516Z" fill="#726E2C"/>
<path fill-rule="evenodd" clip-rule="evenodd" d="M450.283 1.95396C450.985 2.68668 451.559 3.47691 451.559 3.70974C451.559 3.94258 450.985 4.7328 450.283 5.46553L449.006 6.79839L450.372 8.22392L451.737 9.64945L450.36 11.0869L448.983 12.5238L443.256 6.81027C440.105 3.66745 437.311 1.09627 437.045 1.09627C436.779 1.09627 435.29 2.38115 433.737 3.95113L430.911 6.80599L436.821 12.7305L442.731 18.6545L441.351 20.0953L439.97 21.536L438.503 20.1138L437.035 18.6911L435.517 20.2088L433.999 21.727L432.563 20.3509L431.127 18.9753V24.8304V30.6855L432.112 29.4334C433.347 27.862 433.834 27.8663 435.498 29.4605L436.833 30.7392L438.402 29.2191L439.97 27.699L441.335 29.1231C442.085 29.9062 442.608 30.6494 442.496 30.7744C442.385 30.8994 439.738 33.5784 436.614 36.7279L430.934 42.4538L433.99 45.5377L437.046 48.6211L443.015 42.6662L448.983 36.7108L450.36 38.1482L451.737 39.5856L450.46 40.9185C449.758 41.6512 449.184 42.4414 449.184 42.6742C449.184 42.9071 449.758 43.6973 450.46 44.43L451.737 45.7629L450.372 47.1884L449.006 48.614H454.886H460.766L459.4 47.1884L458.034 45.7629L459.311 44.43C460.013 43.6973 460.588 42.9071 460.588 42.6742C460.588 42.4414 460.013 41.6512 459.311 40.9185L458.034 39.5856L459.411 38.1482L460.788 36.7108L466.757 42.6662L472.725 48.6211L475.793 45.5258L478.861 42.43L472.951 36.5055L467.04 30.5805L468.421 29.1398L469.801 27.699L471.37 29.2191L472.938 30.7392L474.273 29.4605C475.937 27.8663 476.424 27.862 477.66 29.4334L478.645 30.6855V24.8304V18.9753L477.217 20.3433L475.789 21.7109L474.221 20.1908L472.652 18.6707L471.273 20.1105L469.893 21.5503L468.456 20.1128L467.019 18.6759L472.94 12.741L478.86 6.80599L476.035 3.95113C474.481 2.38115 472.992 1.09627 472.727 1.09627C472.461 1.09627 469.666 3.66745 466.516 6.81027L460.788 12.5238L459.411 11.0869L458.034 9.64945L459.4 8.22392L460.766 6.79839L459.489 5.46553C457.906 3.81334 457.89 3.22981 459.4 2.24049C460.053 1.81236 460.588 1.27304 460.588 1.04163C460.588 0.810219 457.982 0.621094 454.797 0.621094H449.006L450.283 1.95396ZM448.549 18.5205C448.433 18.6365 447.192 18.6655 445.791 18.5856L443.244 18.4402L445.857 15.8268L448.471 13.2133L448.615 15.7617C448.694 17.1634 448.664 18.4051 448.549 18.5205ZM463.938 15.6671C466.688 18.7253 466.691 18.6778 463.734 18.6778H461.063V16.0477C461.063 13.6875 461.149 13.4637 461.895 13.8685C462.352 14.1166 463.272 14.9258 463.938 15.6671ZM448.708 33.5109V36.4646L446.117 33.9053C444.692 32.4974 443.635 31.1683 443.769 30.9516C443.903 30.7345 445.069 30.5572 446.361 30.5572H448.708V33.5109ZM466.002 30.9516C466.136 31.1683 465.08 32.4974 463.655 33.9053L461.063 36.4646V33.8279C461.063 32.3772 461.206 31.0481 461.38 30.8742C461.836 30.418 465.713 30.4831 466.002 30.9516Z" fill="#726E2C"/>
<path fill-rule="evenodd" clip-rule="evenodd" d="M497.505 1.95396C498.208 2.68668 498.782 3.47691 498.782 3.70974C498.782 3.94258 498.208 4.7328 497.505 5.46553L496.229 6.79839L497.594 8.22392L498.96 9.64945L497.583 11.0869L496.206 12.5238L490.478 6.81027C487.328 3.66745 484.533 1.09627 484.267 1.09627C484.002 1.09627 482.513 2.38115 480.959 3.95113L478.134 6.80599L484.044 12.7305L489.954 18.6545L488.573 20.0953L487.193 21.536L485.725 20.1138L484.258 18.6911L482.74 20.2088L481.222 21.727L479.786 20.3509L478.35 18.9753V24.8304V30.6855L479.335 29.4334C480.57 27.862 481.057 27.8663 482.721 29.4605L484.056 30.7392L485.624 29.2191L487.193 27.699L488.558 29.1231C489.308 29.9062 489.831 30.6494 489.719 30.7744C489.607 30.8994 486.96 33.5784 483.836 36.7279L478.157 42.4538L481.212 45.5377L484.269 48.6211L490.237 42.6662L496.206 36.7108L497.583 38.1482L498.96 39.5856L497.683 40.9185C496.981 41.6512 496.406 42.4414 496.406 42.6742C496.406 42.9071 496.981 43.6973 497.683 44.43L498.96 45.7629L497.594 47.1884L496.229 48.614H502.108H507.988L506.623 47.1884L505.257 45.7629L506.534 44.43C507.236 43.6973 507.81 42.9071 507.81 42.6742C507.81 42.4414 507.236 41.6512 506.534 40.9185L505.257 39.5856L506.634 38.1482L508.011 36.7108L513.979 42.6662L519.948 48.6211L523.016 45.5258L526.084 42.43L520.173 36.5055L514.263 30.5805L515.643 29.1398L517.024 27.699L518.592 29.2191L520.161 30.7392L521.496 29.4605C523.16 27.8663 523.647 27.862 524.882 29.4334L525.867 30.6855V24.8304V18.9753L524.439 20.3433L523.012 21.7109L521.443 20.1908L519.875 18.6707L518.495 20.1105L517.116 21.5503L515.679 20.1128L514.242 18.6759L520.162 12.741L526.083 6.80599L523.258 3.95113C521.704 2.38115 520.215 1.09627 519.949 1.09627C519.683 1.09627 516.889 3.66745 513.738 6.81027L508.011 12.5238L506.634 11.0869L505.257 9.64945L506.623 8.22392L507.988 6.79839L506.711 5.46553C505.129 3.81334 505.112 3.22981 506.623 2.24049C507.276 1.81236 507.81 1.27304 507.81 1.04163C507.81 0.810219 505.205 0.621094 502.019 0.621094H496.229L497.505 1.95396ZM495.771 18.5205C495.655 18.6365 494.415 18.6655 493.014 18.5856L490.467 18.4402L493.08 15.8268L495.693 13.2133L495.837 15.7617C495.917 17.1634 495.887 18.4051 495.771 18.5205ZM511.16 15.6671C513.91 18.7253 513.913 18.6778 510.957 18.6778H508.286V16.0477C508.286 13.6875 508.371 13.4637 509.117 13.8685C509.574 14.1166 510.494 14.9258 511.16 15.6671ZM495.931 33.5109V36.4646L493.339 33.9053C491.914 32.4974 490.858 31.1683 490.992 30.9516C491.126 30.7345 492.292 30.5572 493.583 30.5572H495.931V33.5109ZM513.225 30.9516C513.359 31.1683 512.302 32.4974 510.877 33.9053L508.286 36.4646V33.8279C508.286 32.3772 508.428 31.0481 508.603 30.8742C509.058 30.418 512.935 30.4831 513.225 30.9516Z" fill="#726E2C"/>
<path fill-rule="evenodd" clip-rule="evenodd" d="M544.728 1.95396C545.43 2.68668 546.005 3.47691 546.005 3.70974C546.005 3.94258 545.43 4.7328 544.728 5.46553L543.451 6.79839L544.817 8.22392L546.182 9.64945L544.805 11.0869L543.428 12.5238L537.701 6.81027C534.551 3.66745 531.756 1.09627 531.49 1.09627C531.224 1.09627 529.736 2.38115 528.182 3.95113L525.356 6.80599L531.267 12.7305L537.176 18.6545L535.796 20.0953L534.416 21.536L532.948 20.1138L531.481 18.6911L529.962 20.2088L528.445 21.727L527.008 20.3509L525.572 18.9753V24.8304V30.6855L526.557 29.4334C527.793 27.862 528.28 27.8663 529.944 29.4605L531.279 30.7392L532.847 29.2191L534.416 27.699L535.78 29.1231C536.531 29.9062 537.053 30.6494 536.942 30.7744C536.83 30.8994 534.183 33.5784 531.059 36.7279L525.379 42.4538L528.435 45.5377L531.491 48.6211L537.46 42.6662L543.428 36.7108L544.805 38.1482L546.182 39.5856L544.906 40.9185C544.203 41.6512 543.629 42.4414 543.629 42.6742C543.629 42.9071 544.203 43.6973 544.906 44.43L546.182 45.7629L544.817 47.1884L543.451 48.614H549.331H555.211L553.845 47.1884L552.48 45.7629L553.756 44.43C554.459 43.6973 555.033 42.9071 555.033 42.6742C555.033 42.4414 554.459 41.6512 553.756 40.9185L552.48 39.5856L553.857 38.1482L555.234 36.7108L561.202 42.6662L567.171 48.6211L570.238 45.5258L573.307 42.43L567.396 36.5055L561.486 30.5805L562.866 29.1398L564.246 27.699L565.815 29.2191L567.383 30.7392L568.718 29.4605C570.382 27.8663 570.869 27.862 572.105 29.4334L573.09 30.6855V24.8304V18.9753L571.662 20.3433L570.235 21.7109L568.666 20.1908L567.097 18.6707L565.718 20.1105L564.339 21.5503L562.902 20.1128L561.464 18.6759L567.385 12.741L573.306 6.80599L570.48 3.95113C568.926 2.38115 567.438 1.09627 567.172 1.09627C566.906 1.09627 564.111 3.66745 560.961 6.81027L555.234 12.5238L553.857 11.0869L552.48 9.64945L553.845 8.22392L555.211 6.79839L553.934 5.46553C552.351 3.81334 552.335 3.22981 553.845 2.24049C554.499 1.81236 555.033 1.27304 555.033 1.04163C555.033 0.810219 552.427 0.621094 549.242 0.621094H543.451L544.728 1.95396ZM542.994 18.5205C542.878 18.6365 541.637 18.6655 540.237 18.5856L537.689 18.4402L540.303 15.8268L542.916 13.2133L543.06 15.7617C543.139 17.1634 543.11 18.4051 542.994 18.5205ZM558.383 15.6671C561.133 18.7253 561.136 18.6778 558.18 18.6778H555.508V16.0477C555.508 13.6875 555.594 13.4637 556.34 13.8685C556.797 14.1166 557.717 14.9258 558.383 15.6671ZM543.154 33.5109V36.4646L540.562 33.9053C539.137 32.4974 538.08 31.1683 538.214 30.9516C538.348 30.7345 539.514 30.5572 540.806 30.5572H543.154V33.5109ZM560.448 30.9516C560.582 31.1683 559.525 32.4974 558.1 33.9053L555.508 36.4646V33.8279C555.508 32.3772 555.651 31.0481 555.825 30.8742C556.281 30.418 560.158 30.4831 560.448 30.9516Z" fill="#726E2C"/>
<path fill-rule="evenodd" clip-rule="evenodd" d="M591.951 1.95396C592.653 2.68668 593.227 3.47691 593.227 3.70974C593.227 3.94258 592.653 4.7328 591.951 5.46553L590.674 6.79839L592.039 8.22392L593.405 9.64945L592.028 11.0869L590.651 12.5238L584.924 6.81027C581.773 3.66745 578.979 1.09627 578.713 1.09627C578.447 1.09627 576.958 2.38115 575.404 3.95113L572.579 6.80599L578.489 12.7305L584.399 18.6545L583.019 20.0953L581.638 21.536L580.171 20.1138L578.703 18.6911L577.185 20.2088L575.667 21.727L574.231 20.3509L572.795 18.9753V24.8304V30.6855L573.78 29.4334C575.015 27.862 575.502 27.8663 577.166 29.4605L578.501 30.7392L580.07 29.2191L581.638 27.699L583.003 29.1231C583.753 29.9062 584.276 30.6494 584.164 30.7744C584.053 30.8994 581.406 33.5784 578.282 36.7279L572.602 42.4538L575.658 45.5377L578.714 48.6211L584.683 42.6662L590.651 36.7108L592.028 38.1482L593.405 39.5856L592.128 40.9185C591.426 41.6512 590.852 42.4414 590.852 42.6742C590.852 42.9071 591.426 43.6973 592.128 44.43L593.405 45.7629L592.039 47.1884L590.674 48.614H596.554H602.434L601.068 47.1884L599.702 45.7629L600.979 44.43C601.681 43.6973 602.256 42.9071 602.256 42.6742C602.256 42.4414 601.681 41.6512 600.979 40.9185L599.702 39.5856L601.079 38.1482L602.456 36.7108L608.425 42.6662L614.393 48.6211L617.461 45.5258L620.529 42.43L614.618 36.5055L608.708 30.5805L610.089 29.1398L611.469 27.699L613.038 29.2191L614.606 30.7392L615.941 29.4605C617.605 27.8663 618.092 27.862 619.327 29.4334L620.313 30.6855V24.8304V18.9753L618.885 20.3433L617.457 21.7109L615.889 20.1908L614.32 18.6707L612.941 20.1105L611.561 21.5503L610.124 20.1128L608.687 18.6759L614.608 12.741L620.528 6.80599L617.703 3.95113C616.149 2.38115 614.66 1.09627 614.395 1.09627C614.129 1.09627 611.334 3.66745 608.184 6.81027L602.456 12.5238L601.079 11.0869L599.702 9.64945L601.068 8.22392L602.434 6.79839L601.157 5.46553C599.574 3.81334 599.558 3.22981 601.068 2.24049C601.721 1.81236 602.256 1.27304 602.256 1.04163C602.256 0.810219 599.65 0.621094 596.465 0.621094H590.674L591.951 1.95396ZM590.217 18.5205C590.101 18.6365 588.86 18.6655 587.459 18.5856L584.912 18.4402L587.525 15.8268L590.139 13.2133L590.283 15.7617C590.362 17.1634 590.332 18.4051 590.217 18.5205ZM605.606 15.6671C608.356 18.7253 608.358 18.6778 605.402 18.6778H602.731V16.0477C602.731 13.6875 602.816 13.4637 603.563 13.8685C604.02 14.1166 604.94 14.9258 605.606 15.6671ZM590.376 33.5109V36.4646L587.785 33.9053C586.36 32.4974 585.303 31.1683 585.437 30.9516C585.571 30.7345 586.737 30.5572 588.029 30.5572H590.376V33.5109ZM607.67 30.9516C607.804 31.1683 606.748 32.4974 605.323 33.9053L602.731 36.4646V33.8279C602.731 32.3772 602.874 31.0481 603.048 30.8742C603.504 30.418 607.381 30.4831 607.67 30.9516Z" fill="#726E2C"/>
<path fill-rule="evenodd" clip-rule="evenodd" d="M639.173 1.95396C639.876 2.68668 640.45 3.47691 640.45 3.70974C640.45 3.94258 639.876 4.7328 639.173 5.46553L637.897 6.79839L639.262 8.22392L640.628 9.64945L639.251 11.0869L637.874 12.5238L632.146 6.81027C628.996 3.66745 626.201 1.09627 625.935 1.09627C625.67 1.09627 624.181 2.38115 622.627 3.95113L619.802 6.80599L625.712 12.7305L631.622 18.6545L630.241 20.0953L628.861 21.536L627.393 20.1138L625.926 18.6911L624.408 20.2088L622.89 21.727L621.453 20.3509L620.017 18.9753V24.8304V30.6855L621.003 29.4334C622.238 27.862 622.725 27.8663 624.389 29.4605L625.724 30.7392L627.292 29.2191L628.861 27.699L630.226 29.1231C630.976 29.9062 631.499 30.6494 631.387 30.7744C631.275 30.8994 628.628 33.5784 625.504 36.7279L619.825 42.4538L622.88 45.5377L625.937 48.6211L631.905 42.6662L637.874 36.7108L639.251 38.1482L640.628 39.5856L639.351 40.9185C638.649 41.6512 638.074 42.4414 638.074 42.6742C638.074 42.9071 638.649 43.6973 639.351 44.43L640.628 45.7629L639.262 47.1884L637.897 48.614H643.776H649.656L648.291 47.1884L646.925 45.7629L648.202 44.43C648.904 43.6973 649.478 42.9071 649.478 42.6742C649.478 42.4414 648.904 41.6512 648.202 40.9185L646.925 39.5856L648.302 38.1482L649.679 36.7108L655.647 42.6662L661.616 48.6211L664.684 45.5258L667.752 42.43L661.841 36.5055L655.931 30.5805L657.311 29.1398L658.692 27.699L660.26 29.2191L661.829 30.7392L663.164 29.4605C664.828 27.8663 665.315 27.862 666.55 29.4334L667.535 30.6855V24.8304V18.9753L666.107 20.3433L664.68 21.7109L663.111 20.1908L661.543 18.6707L660.163 20.1105L658.784 21.5503L657.347 20.1128L655.909 18.6759L661.83 12.741L667.751 6.80599L664.925 3.95113C663.372 2.38115 661.883 1.09627 661.617 1.09627C661.351 1.09627 658.557 3.66745 655.406 6.81027L649.679 12.5238L648.302 11.0869L646.925 9.64945L648.291 8.22392L649.656 6.79839L648.379 5.46553C646.797 3.81334 646.78 3.22981 648.291 2.24049C648.944 1.81236 649.478 1.27304 649.478 1.04163C649.478 0.810219 646.873 0.621094 643.687 0.621094H637.897L639.173 1.95396ZM637.439 18.5205C637.323 18.6365 636.083 18.6655 634.682 18.5856L632.134 18.4402L634.748 15.8268L637.361 13.2133L637.505 15.7617C637.585 17.1634 637.555 18.4051 637.439 18.5205ZM652.828 15.6671C655.578 18.7253 655.581 18.6778 652.625 18.6778H649.954V16.0477C649.954 13.6875 650.039 13.4637 650.785 13.8685C651.242 14.1166 652.162 14.9258 652.828 15.6671ZM637.599 33.5109V36.4646L635.007 33.9053C633.582 32.4974 632.526 31.1683 632.66 30.9516C632.794 30.7345 633.96 30.5572 635.251 30.5572H637.599V33.5109ZM654.893 30.9516C655.027 31.1683 653.97 32.4974 652.545 33.9053L649.954 36.4646V33.8279C649.954 32.3772 650.096 31.0481 650.271 30.8742C650.726 30.418 654.603 30.4831 654.893 30.9516Z" fill="#726E2C"/>
<path fill-rule="evenodd" clip-rule="evenodd" d="M686.397 1.95396C687.099 2.68668 687.674 3.47691 687.674 3.70974C687.674 3.94258 687.099 4.7328 686.397 5.46553L685.12 6.79839L686.486 8.22392L687.851 9.64945L686.474 11.0869L685.097 12.5238L679.37 6.81027C676.22 3.66745 673.425 1.09627 673.159 1.09627C672.893 1.09627 671.405 2.38115 669.851 3.95113L667.025 6.80599L672.936 12.7305L678.845 18.6545L677.465 20.0953L676.085 21.536L674.617 20.1138L673.149 18.6911L671.631 20.2088L670.114 21.727L668.677 20.3509L667.241 18.9753V24.8304V30.6855L668.226 29.4334C669.462 27.862 669.949 27.8663 671.613 29.4605L672.948 30.7392L674.516 29.2191L676.085 27.699L677.449 29.1231C678.2 29.9062 678.722 30.6494 678.611 30.7744C678.499 30.8994 675.852 33.5784 672.728 36.7279L667.048 42.4538L670.104 45.5377L673.16 48.6211L679.129 42.6662L685.097 36.7108L686.474 38.1482L687.851 39.5856L686.575 40.9185C685.872 41.6512 685.298 42.4414 685.298 42.6742C685.298 42.9071 685.872 43.6973 686.575 44.43L687.851 45.7629L686.486 47.1884L685.12 48.614H691H696.88L695.514 47.1884L694.148 45.7629L695.425 44.43C696.128 43.6973 696.702 42.9071 696.702 42.6742C696.702 42.4414 696.128 41.6512 695.425 40.9185L694.148 39.5856L695.526 38.1482L696.903 36.7108L702.871 42.6662L708.84 48.6211L711.907 45.5258L714.975 42.43L709.065 36.5055L703.155 30.5805L704.535 29.1398L705.915 27.699L707.484 29.2191L709.052 30.7392L710.387 29.4605C712.051 27.8663 712.538 27.862 713.774 29.4334L714.759 30.6855V24.8304V18.9753L713.331 20.3433L711.903 21.7109L710.335 20.1908L708.766 18.6707L707.387 20.1105L706.007 21.5503L704.571 20.1128L703.133 18.6759L709.054 12.741L714.975 6.80599L712.149 3.95113C710.595 2.38115 709.107 1.09627 708.841 1.09627C708.575 1.09627 705.78 3.66745 702.63 6.81027L696.903 12.5238L695.526 11.0869L694.148 9.64945L695.514 8.22392L696.88 6.79839L695.603 5.46553C694.02 3.81334 694.004 3.22981 695.514 2.24049C696.168 1.81236 696.702 1.27304 696.702 1.04163C696.702 0.810219 694.096 0.621094 690.911 0.621094H685.12L686.397 1.95396ZM684.663 18.5205C684.547 18.6365 683.306 18.6655 681.906 18.5856L679.358 18.4402L681.972 15.8268L684.585 13.2133L684.729 15.7617C684.808 17.1634 684.778 18.4051 684.663 18.5205ZM700.052 15.6671C702.802 18.7253 702.805 18.6778 699.849 18.6778H697.177V16.0477C697.177 13.6875 697.263 13.4637 698.009 13.8685C698.466 14.1166 699.386 14.9258 700.052 15.6671ZM684.823 33.5109V36.4646L682.231 33.9053C680.806 32.4974 679.749 31.1683 679.883 30.9516C680.017 30.7345 681.183 30.5572 682.475 30.5572H684.823V33.5109ZM702.117 30.9516C702.251 31.1683 701.194 32.4974 699.769 33.9053L697.177 36.4646V33.8279C697.177 32.3772 697.32 31.0481 697.494 30.8742C697.95 30.418 701.827 30.4831 702.117 30.9516Z" fill="#726E2C"/>
<path fill-rule="evenodd" clip-rule="evenodd" d="M733.62 1.95396C734.322 2.68668 734.896 3.47691 734.896 3.70974C734.896 3.94258 734.322 4.7328 733.62 5.46553L732.343 6.79839L733.708 8.22392L735.074 9.64945L733.697 11.0869L732.32 12.5238L726.593 6.81027C723.442 3.66745 720.648 1.09627 720.382 1.09627C720.116 1.09627 718.627 2.38115 717.073 3.95113L714.248 6.80599L720.158 12.7305L726.068 18.6545L724.688 20.0953L723.307 21.536L721.839 20.1138L720.372 18.6911L718.854 20.2088L717.336 21.727L715.9 20.3509L714.464 18.9753V24.8304V30.6855L715.449 29.4334C716.684 27.862 717.171 27.8663 718.835 29.4605L720.17 30.7392L721.739 29.2191L723.307 27.699L724.672 29.1231C725.422 29.9062 725.945 30.6494 725.833 30.7744C725.722 30.8994 723.074 33.5784 719.951 36.7279L714.271 42.4538L717.327 45.5377L720.383 48.6211L726.352 42.6662L732.32 36.7108L733.697 38.1482L735.074 39.5856L733.797 40.9185C733.095 41.6512 732.52 42.4414 732.52 42.6742C732.52 42.9071 733.095 43.6973 733.797 44.43L735.074 45.7629L733.708 47.1884L732.343 48.614H738.223H744.102L742.737 47.1884L741.371 45.7629L742.648 44.43C743.35 43.6973 743.925 42.9071 743.925 42.6742C743.925 42.4414 743.35 41.6512 742.648 40.9185L741.371 39.5856L742.748 38.1482L744.125 36.7108L750.093 42.6662L756.062 48.6211L759.13 45.5258L762.198 42.43L756.287 36.5055L750.377 30.5805L751.758 29.1398L753.138 27.699L754.706 29.2191L756.275 30.7392L757.61 29.4605C759.274 27.8663 759.761 27.862 760.996 29.4334L761.981 30.6855V24.8304V18.9753L760.554 20.3433L759.126 21.7109L757.558 20.1908L755.989 18.6707L754.61 20.1105L753.23 21.5503L751.793 20.1128L750.356 18.6759L756.276 12.741L762.197 6.80599L759.372 3.95113C757.818 2.38115 756.329 1.09627 756.064 1.09627C755.798 1.09627 753.003 3.66745 749.853 6.81027L744.125 12.5238L742.748 11.0869L741.371 9.64945L742.737 8.22392L744.102 6.79839L742.826 5.46553C741.243 3.81334 741.227 3.22981 742.737 2.24049C743.39 1.81236 743.925 1.27304 743.925 1.04163C743.925 0.810219 741.319 0.621094 738.134 0.621094H732.343L733.62 1.95396ZM731.886 18.5205C731.77 18.6365 730.529 18.6655 729.128 18.5856L726.581 18.4402L729.194 15.8268L731.808 13.2133L731.952 15.7617C732.031 17.1634 732.001 18.4051 731.886 18.5205ZM747.275 15.6671C750.025 18.7253 750.027 18.6778 747.071 18.6778H744.4V16.0477C744.4 13.6875 744.485 13.4637 745.231 13.8685C745.689 14.1166 746.609 14.9258 747.275 15.6671ZM732.045 33.5109V36.4646L729.454 33.9053C728.029 32.4974 726.972 31.1683 727.106 30.9516C727.24 30.7345 728.406 30.5572 729.697 30.5572H732.045V33.5109ZM749.339 30.9516C749.473 31.1683 748.417 32.4974 746.992 33.9053L744.4 36.4646V33.8279C744.4 32.3772 744.542 31.0481 744.717 30.8742C745.173 30.418 749.05 30.4831 749.339 30.9516Z" fill="#726E2C"/>
<path fill-rule="evenodd" clip-rule="evenodd" d="M780.842 1.95396C781.545 2.68668 782.119 3.47691 782.119 3.70974C782.119 3.94258 781.545 4.7328 780.842 5.46553L779.565 6.79839L780.931 8.22392L782.297 9.64945L780.92 11.0869L779.543 12.5238L773.815 6.81027C770.665 3.66745 767.87 1.09627 767.604 1.09627C767.339 1.09627 765.85 2.38115 764.296 3.95113L761.471 6.80599L767.381 12.7305L773.291 18.6545L771.91 20.0953L770.53 21.536L769.062 20.1138L767.595 18.6911L766.077 20.2088L764.559 21.727L763.122 20.3509L761.686 18.9753V24.8304V30.6855L762.671 29.4334C763.907 27.862 764.394 27.8663 766.058 29.4605L767.393 30.7392L768.961 29.2191L770.53 27.699L771.895 29.1231C772.645 29.9062 773.168 30.6494 773.056 30.7744C772.944 30.8994 770.297 33.5784 767.173 36.7279L761.493 42.4538L764.549 45.5377L767.606 48.6211L773.574 42.6662L779.543 36.7108L780.92 38.1482L782.297 39.5856L781.02 40.9185C780.318 41.6512 779.743 42.4414 779.743 42.6742C779.743 42.9071 780.318 43.6973 781.02 44.43L782.297 45.7629L780.931 47.1884L779.565 48.614H785.445H791.325L789.959 47.1884L788.594 45.7629L789.871 44.43C790.573 43.6973 791.147 42.9071 791.147 42.6742C791.147 42.4414 790.573 41.6512 789.871 40.9185L788.594 39.5856L789.971 38.1482L791.348 36.7108L797.316 42.6662L803.285 48.6211L806.353 45.5258L809.421 42.43L803.51 36.5055L797.6 30.5805L798.98 29.1398L800.361 27.699L801.929 29.2191L803.498 30.7392L804.832 29.4605C806.497 27.8663 806.984 27.862 808.219 29.4334L809.204 30.6855V24.8304V18.9753L807.776 20.3433L806.349 21.7109L804.78 20.1908L803.212 18.6707L801.832 20.1105L800.453 21.5503L799.016 20.1128L797.578 18.6759L803.499 12.741L809.42 6.80599L806.594 3.95113C805.041 2.38115 803.552 1.09627 803.286 1.09627C803.02 1.09627 800.226 3.66745 797.075 6.81027L791.348 12.5238L789.971 11.0869L788.594 9.64945L789.959 8.22392L791.325 6.79839L790.048 5.46553C788.465 3.81334 788.449 3.22981 789.959 2.24049C790.613 1.81236 791.147 1.27304 791.147 1.04163C791.147 0.810219 788.542 0.621094 785.356 0.621094H779.565L780.842 1.95396ZM779.108 18.5205C778.992 18.6365 777.752 18.6655 776.351 18.5856L773.803 18.4402L776.417 15.8268L779.03 13.2133L779.174 15.7617C779.254 17.1634 779.224 18.4051 779.108 18.5205ZM794.497 15.6671C797.247 18.7253 797.25 18.6778 794.294 18.6778H791.623V16.0477C791.623 13.6875 791.708 13.4637 792.454 13.8685C792.911 14.1166 793.831 14.9258 794.497 15.6671ZM779.268 33.5109V36.4646L776.676 33.9053C775.251 32.4974 774.195 31.1683 774.329 30.9516C774.463 30.7345 775.629 30.5572 776.92 30.5572H779.268V33.5109ZM796.562 30.9516C796.696 31.1683 795.639 32.4974 794.214 33.9053L791.623 36.4646V33.8279C791.623 32.3772 791.765 31.0481 791.94 30.8742C792.395 30.418 796.272 30.4831 796.562 30.9516Z" fill="#726E2C"/>
<path fill-rule="evenodd" clip-rule="evenodd" d="M828.065 1.95396C828.767 2.68668 829.342 3.47691 829.342 3.70974C829.342 3.94258 828.767 4.7328 828.065 5.46553L826.788 6.79839L828.154 8.22392L829.519 9.64945L828.142 11.0869L826.765 12.5238L821.038 6.81027C817.888 3.66745 815.093 1.09627 814.827 1.09627C814.561 1.09627 813.073 2.38115 811.519 3.95113L808.693 6.80599L814.604 12.7305L820.513 18.6545L819.133 20.0953L817.753 21.536L816.285 20.1138L814.817 18.6911L813.299 20.2088L811.782 21.727L810.345 20.3509L808.909 18.9753V24.8304V30.6855L809.894 29.4334C811.13 27.862 811.617 27.8663 813.281 29.4605L814.615 30.7392L816.184 29.2191L817.753 27.699L819.117 29.1231C819.868 29.9062 820.39 30.6494 820.279 30.7744C820.167 30.8994 817.52 33.5784 814.396 36.7279L808.716 42.4538L811.772 45.5377L814.828 48.6211L820.797 42.6662L826.765 36.7108L828.142 38.1482L829.519 39.5856L828.243 40.9185C827.54 41.6512 826.966 42.4414 826.966 42.6742C826.966 42.9071 827.54 43.6973 828.243 44.43L829.519 45.7629L828.154 47.1884L826.788 48.614H832.668H838.548L837.182 47.1884L835.816 45.7629L837.093 44.43C837.796 43.6973 838.37 42.9071 838.37 42.6742C838.37 42.4414 837.796 41.6512 837.093 40.9185L835.816 39.5856L837.194 38.1482L838.571 36.7108L844.539 42.6662L850.508 48.6211L853.575 45.5258L856.643 42.43L850.733 36.5055L844.822 30.5805L846.203 29.1398L847.583 27.699L849.152 29.2191L850.72 30.7392L852.055 29.4605C853.719 27.8663 854.206 27.862 855.442 29.4334L856.427 30.6855V24.8304V18.9753L854.999 20.3433L853.571 21.7109L852.003 20.1908L850.434 18.6707L849.055 20.1105L847.675 21.5503L846.239 20.1128L844.801 18.6759L850.722 12.741L856.643 6.80599L853.817 3.95113C852.263 2.38115 850.775 1.09627 850.509 1.09627C850.243 1.09627 847.448 3.66745 844.298 6.81027L838.571 12.5238L837.194 11.0869L835.816 9.64945L837.182 8.22392L838.548 6.79839L837.271 5.46553C835.688 3.81334 835.672 3.22981 837.182 2.24049C837.835 1.81236 838.37 1.27304 838.37 1.04163C838.37 0.810219 835.764 0.621094 832.579 0.621094H826.788L828.065 1.95396ZM826.331 18.5205C826.215 18.6365 824.974 18.6655 823.574 18.5856L821.026 18.4402L823.64 15.8268L826.253 13.2133L826.397 15.7617C826.476 17.1634 826.446 18.4051 826.331 18.5205ZM841.72 15.6671C844.47 18.7253 844.473 18.6778 841.517 18.6778H838.845V16.0477C838.845 13.6875 838.931 13.4637 839.677 13.8685C840.134 14.1166 841.054 14.9258 841.72 15.6671ZM826.491 33.5109V36.4646L823.899 33.9053C822.474 32.4974 821.417 31.1683 821.551 30.9516C821.685 30.7345 822.851 30.5572 824.143 30.5572H826.491V33.5109ZM843.785 30.9516C843.919 31.1683 842.862 32.4974 841.437 33.9053L838.845 36.4646V33.8279C838.845 32.3772 838.988 31.0481 839.162 30.8742C839.618 30.418 843.495 30.4831 843.785 30.9516Z" fill="#726E2C"/>
<path fill-rule="evenodd" clip-rule="evenodd" d="M875.288 1.95396C875.99 2.68668 876.564 3.47691 876.564 3.70974C876.564 3.94258 875.99 4.7328 875.288 5.46553L874.011 6.79839L875.376 8.22392L876.742 9.64945L875.365 11.0869L873.988 12.5238L868.261 6.81027C865.11 3.66745 862.316 1.09627 862.05 1.09627C861.784 1.09627 860.295 2.38115 858.741 3.95113L855.916 6.80599L861.826 12.7305L867.736 18.6545L866.356 20.0953L864.975 21.536L863.507 20.1138L862.04 18.6911L860.522 20.2088L859.004 21.727L857.568 20.3509L856.132 18.9753V24.8304V30.6855L857.117 29.4334C858.352 27.862 858.839 27.8663 860.503 29.4605L861.838 30.7392L863.407 29.2191L864.975 27.699L866.34 29.1231C867.09 29.9062 867.613 30.6494 867.501 30.7744C867.39 30.8994 864.742 33.5784 861.619 36.7279L855.939 42.4538L858.995 45.5377L862.051 48.6211L868.02 42.6662L873.988 36.7108L875.365 38.1482L876.742 39.5856L875.465 40.9185C874.763 41.6512 874.188 42.4414 874.188 42.6742C874.188 42.9071 874.763 43.6973 875.465 44.43L876.742 45.7629L875.376 47.1884L874.011 48.614H879.891H885.77L884.405 47.1884L883.039 45.7629L884.316 44.43C885.018 43.6973 885.593 42.9071 885.593 42.6742C885.593 42.4414 885.018 41.6512 884.316 40.9185L883.039 39.5856L884.416 38.1482L885.793 36.7108L891.761 42.6662L897.73 48.6211L900.798 45.5258L903.866 42.43L897.955 36.5055L892.045 30.5805L893.426 29.1398L894.806 27.699L896.374 29.2191L897.943 30.7392L899.278 29.4605C900.942 27.8663 901.429 27.862 902.664 29.4334L903.649 30.6855V24.8304V18.9753L902.222 20.3433L900.794 21.7109L899.226 20.1908L897.657 18.6707L896.278 20.1105L894.898 21.5503L893.461 20.1128L892.024 18.6759L897.944 12.741L903.865 6.80599L901.04 3.95113C899.486 2.38115 897.997 1.09627 897.732 1.09627C897.465 1.09627 894.671 3.66745 891.521 6.81027L885.793 12.5238L884.416 11.0869L883.039 9.64945L884.405 8.22392L885.77 6.79839L884.494 5.46553C882.911 3.81334 882.895 3.22981 884.405 2.24049C885.058 1.81236 885.593 1.27304 885.593 1.04163C885.593 0.810219 882.987 0.621094 879.802 0.621094H874.011L875.288 1.95396ZM873.554 18.5205C873.438 18.6365 872.197 18.6655 870.796 18.5856L868.249 18.4402L870.862 15.8268L873.476 13.2133L873.62 15.7617C873.699 17.1634 873.669 18.4051 873.554 18.5205ZM888.943 15.6671C891.693 18.7253 891.695 18.6778 888.739 18.6778H886.068V16.0477C886.068 13.6875 886.153 13.4637 886.899 13.8685C887.357 14.1166 888.276 14.9258 888.943 15.6671ZM873.713 33.5109V36.4646L871.122 33.9053C869.697 32.4974 868.64 31.1683 868.774 30.9516C868.908 30.7345 870.074 30.5572 871.365 30.5572H873.713V33.5109ZM891.007 30.9516C891.141 31.1683 890.085 32.4974 888.66 33.9053L886.068 36.4646V33.8279C886.068 32.3772 886.21 31.0481 886.385 30.8742C886.841 30.418 890.717 30.4831 891.007 30.9516Z" fill="#726E2C"/>
<path fill-rule="evenodd" clip-rule="evenodd" d="M922.51 1.95396C923.213 2.68668 923.787 3.47691 923.787 3.70974C923.787 3.94258 923.213 4.7328 922.51 5.46553L921.233 6.79839L922.599 8.22392L923.965 9.64945L922.588 11.0869L921.211 12.5238L915.483 6.81027C912.333 3.66745 909.538 1.09627 909.272 1.09627C909.007 1.09627 907.518 2.38115 905.964 3.95113L903.139 6.80599L909.049 12.7305L914.959 18.6545L913.578 20.0953L912.198 21.536L910.73 20.1138L909.263 18.6911L907.745 20.2088L906.227 21.727L904.79 20.3509L903.354 18.9753V24.8304V30.6855L904.339 29.4334C905.575 27.862 906.062 27.8663 907.726 29.4605L909.061 30.7392L910.629 29.2191L912.198 27.699L913.563 29.1231C914.313 29.9062 914.836 30.6494 914.724 30.7744C914.612 30.8994 911.965 33.5784 908.841 36.7279L903.161 42.4538L906.217 45.5377L909.274 48.6211L915.242 42.6662L921.211 36.7108L922.588 38.1482L923.965 39.5856L922.688 40.9185C921.986 41.6512 921.411 42.4414 921.411 42.6742C921.411 42.9071 921.986 43.6973 922.688 44.43L923.965 45.7629L922.599 47.1884L921.233 48.614H927.113H932.993L931.627 47.1884L930.262 45.7629L931.539 44.43C932.241 43.6973 932.815 42.9071 932.815 42.6742C932.815 42.4414 932.241 41.6512 931.539 40.9185L930.262 39.5856L931.639 38.1482L933.016 36.7108L938.984 42.6662L944.953 48.6211L948.021 45.5258L951.089 42.43L945.178 36.5055L939.268 30.5805L940.648 29.1398L942.029 27.699L943.597 29.2191L945.166 30.7392L946.5 29.4605C948.165 27.8663 948.652 27.862 949.887 29.4334L950.872 30.6855V24.8304V18.9753L949.444 20.3433L948.017 21.7109L946.448 20.1908L944.88 18.6707L943.5 20.1105L942.121 21.5503L940.684 20.1128L939.246 18.6759L945.167 12.741L951.088 6.80599L948.262 3.95113C946.709 2.38115 945.22 1.09627 944.954 1.09627C944.688 1.09627 941.894 3.66745 938.743 6.81027L933.016 12.5238L931.639 11.0869L930.262 9.64945L931.627 8.22392L932.993 6.79839L931.716 5.46553C930.133 3.81334 930.117 3.22981 931.627 2.24049C932.281 1.81236 932.815 1.27304 932.815 1.04163C932.815 0.810219 930.209 0.621094 927.024 0.621094H921.233L922.51 1.95396ZM920.776 18.5205C920.66 18.6365 919.42 18.6655 918.019 18.5856L915.471 18.4402L918.085 15.8268L920.698 13.2133L920.842 15.7617C920.922 17.1634 920.892 18.4051 920.776 18.5205ZM936.165 15.6671C938.915 18.7253 938.918 18.6778 935.962 18.6778H933.291V16.0477C933.291 13.6875 933.376 13.4637 934.122 13.8685C934.579 14.1166 935.499 14.9258 936.165 15.6671ZM920.936 33.5109V36.4646L918.344 33.9053C916.919 32.4974 915.862 31.1683 915.996 30.9516C916.13 30.7345 917.297 30.5572 918.588 30.5572H920.936V33.5109ZM938.23 30.9516C938.364 31.1683 937.307 32.4974 935.882 33.9053L933.291 36.4646V33.8279C933.291 32.3772 933.433 31.0481 933.607 30.8742C934.063 30.418 937.94 30.4831 938.23 30.9516Z" fill="#726E2C"/>
<path fill-rule="evenodd" clip-rule="evenodd" d="M969.734 1.95396C970.436 2.68668 971.011 3.47691 971.011 3.70974C971.011 3.94258 970.436 4.7328 969.734 5.46553L968.457 6.79839L969.823 8.22392L971.188 9.64945L969.811 11.0869L968.434 12.5238L962.707 6.81027C959.557 3.66745 956.762 1.09627 956.496 1.09627C956.23 1.09627 954.742 2.38115 953.188 3.95113L950.362 6.80599L956.273 12.7305L962.182 18.6545L960.802 20.0953L959.422 21.536L957.954 20.1138L956.486 18.6911L954.968 20.2088L953.45 21.727L952.014 20.3509L950.578 18.9753V24.8304V30.6855L951.563 29.4334C952.799 27.862 953.286 27.8663 954.95 29.4605L956.284 30.7392L957.853 29.2191L959.422 27.699L960.786 29.1231C961.537 29.9062 962.059 30.6494 961.948 30.7744C961.836 30.8994 959.189 33.5784 956.065 36.7279L950.385 42.4538L953.441 45.5377L956.497 48.6211L962.466 42.6662L968.434 36.7108L969.811 38.1482L971.188 39.5856L969.912 40.9185C969.209 41.6512 968.635 42.4414 968.635 42.6742C968.635 42.9071 969.209 43.6973 969.912 44.43L971.188 45.7629L969.823 47.1884L968.457 48.614H974.337H980.217L978.851 47.1884L977.485 45.7629L978.762 44.43C979.464 43.6973 980.039 42.9071 980.039 42.6742C980.039 42.4414 979.464 41.6512 978.762 40.9185L977.485 39.5856L978.862 38.1482L980.24 36.7108L986.208 42.6662L992.176 48.6211L995.244 45.5258L998.312 42.43L992.402 36.5055L986.491 30.5805L987.872 29.1398L989.252 27.699L990.821 29.2191L992.389 30.7392L993.724 29.4605C995.388 27.8663 995.875 27.862 997.111 29.4334L998.096 30.6855V24.8304V18.9753L996.668 20.3433L995.24 21.7109L993.672 20.1908L992.103 18.6707L990.724 20.1105L989.344 21.5503L987.907 20.1128L986.47 18.6759L992.391 12.741L998.311 6.80599L995.486 3.95113C993.932 2.38115 992.443 1.09627 992.178 1.09627C991.912 1.09627 989.117 3.66745 985.967 6.81027L980.24 12.5238L978.862 11.0869L977.485 9.64945L978.851 8.22392L980.217 6.79839L978.94 5.46553C977.357 3.81334 977.341 3.22981 978.851 2.24049C979.504 1.81236 980.039 1.27304 980.039 1.04163C980.039 0.810219 977.433 0.621094 974.248 0.621094H968.457L969.734 1.95396ZM968 18.5205C967.884 18.6365 966.643 18.6655 965.242 18.5856L962.695 18.4402L965.309 15.8268L967.922 13.2133L968.066 15.7617C968.145 17.1634 968.115 18.4051 968 18.5205ZM983.389 15.6671C986.139 18.7253 986.142 18.6778 983.186 18.6778H980.514V16.0477C980.514 13.6875 980.6 13.4637 981.346 13.8685C981.803 14.1166 982.723 14.9258 983.389 15.6671ZM968.16 33.5109V36.4646L965.568 33.9053C964.143 32.4974 963.086 31.1683 963.22 30.9516C963.354 30.7345 964.52 30.5572 965.812 30.5572H968.16V33.5109ZM985.454 30.9516C985.588 31.1683 984.531 32.4974 983.106 33.9053L980.514 36.4646V33.8279C980.514 32.3772 980.657 31.0481 980.831 30.8742C981.287 30.418 985.164 30.4831 985.454 30.9516Z" fill="#726E2C"/>
<path fill-rule="evenodd" clip-rule="evenodd" d="M1016.96 1.95396C1017.66 2.68668 1018.23 3.47691 1018.23 3.70974C1018.23 3.94258 1017.66 4.7328 1016.96 5.46553L1015.68 6.79839L1017.05 8.22392L1018.41 9.64945L1017.03 11.0869L1015.66 12.5238L1009.93 6.81027C1006.78 3.66745 1003.98 1.09627 1003.72 1.09627C1003.45 1.09627 1001.96 2.38115 1000.41 3.95113L997.585 6.80599L1003.5 12.7305L1009.4 18.6545L1008.02 20.0953L1006.64 21.536L1005.18 20.1138L1003.71 18.6911L1002.19 20.2088L1000.67 21.727L999.237 20.3509L997.801 18.9753V24.8304V30.6855L998.786 29.4334C1000.02 27.862 1000.51 27.8663 1002.17 29.4605L1003.51 30.7392L1005.08 29.2191L1006.64 27.699L1008.01 29.1231C1008.76 29.9062 1009.28 30.6494 1009.17 30.7744C1009.06 30.8994 1006.41 33.5784 1003.29 36.7279L997.608 42.4538L1000.66 45.5377L1003.72 48.6211L1009.69 42.6662L1015.66 36.7108L1017.03 38.1482L1018.41 39.5856L1017.13 40.9185C1016.43 41.6512 1015.86 42.4414 1015.86 42.6742C1015.86 42.9071 1016.43 43.6973 1017.13 44.43L1018.41 45.7629L1017.05 47.1884L1015.68 48.614H1021.56H1027.44L1026.07 47.1884L1024.71 45.7629L1025.98 44.43C1026.69 43.6973 1027.26 42.9071 1027.26 42.6742C1027.26 42.4414 1026.69 41.6512 1025.98 40.9185L1024.71 39.5856L1026.09 38.1482L1027.46 36.7108L1033.43 42.6662L1039.4 48.6211L1042.47 45.5258L1045.54 42.43L1039.62 36.5055L1033.71 30.5805L1035.09 29.1398L1036.47 27.699L1038.04 29.2191L1039.61 30.7392L1040.95 29.4605C1042.61 27.8663 1043.1 27.862 1044.33 29.4334L1045.32 30.6855V24.8304V18.9753L1043.89 20.3433L1042.46 21.7109L1040.89 20.1908L1039.33 18.6707L1037.95 20.1105L1036.57 21.5503L1035.13 20.1128L1033.69 18.6759L1039.61 12.741L1045.53 6.80599L1042.71 3.95113C1041.15 2.38115 1039.67 1.09627 1039.4 1.09627C1039.13 1.09627 1036.34 3.66745 1033.19 6.81027L1027.46 12.5238L1026.09 11.0869L1024.71 9.64945L1026.07 8.22392L1027.44 6.79839L1026.16 5.46553C1024.58 3.81334 1024.56 3.22981 1026.07 2.24049C1026.73 1.81236 1027.26 1.27304 1027.26 1.04163C1027.26 0.810219 1024.66 0.621094 1021.47 0.621094H1015.68L1016.96 1.95396ZM1015.22 18.5205C1015.11 18.6365 1013.87 18.6655 1012.47 18.5856L1009.92 18.4402L1012.53 15.8268L1015.14 13.2133L1015.29 15.7617C1015.37 17.1634 1015.34 18.4051 1015.22 18.5205ZM1030.61 15.6671C1033.36 18.7253 1033.36 18.6778 1030.41 18.6778H1027.74V16.0477C1027.74 13.6875 1027.82 13.4637 1028.57 13.8685C1029.03 14.1166 1029.95 14.9258 1030.61 15.6671ZM1015.38 33.5109V36.4646L1012.79 33.9053C1011.37 32.4974 1010.31 31.1683 1010.44 30.9516C1010.58 30.7345 1011.74 30.5572 1013.03 30.5572H1015.38V33.5109ZM1032.68 30.9516C1032.81 31.1683 1031.75 32.4974 1030.33 33.9053L1027.74 36.4646V33.8279C1027.74 32.3772 1027.88 31.0481 1028.05 30.8742C1028.51 30.418 1032.39 30.4831 1032.68 30.9516Z" fill="#726E2C"/>
<path fill-rule="evenodd" clip-rule="evenodd" d="M1064.18 1.95396C1064.88 2.68668 1065.46 3.47691 1065.46 3.70974C1065.46 3.94258 1064.88 4.7328 1064.18 5.46553L1062.9 6.79839L1064.27 8.22392L1065.63 9.64945L1064.26 11.0869L1062.88 12.5238L1057.15 6.81027C1054 3.66745 1051.21 1.09627 1050.94 1.09627C1050.68 1.09627 1049.19 2.38115 1047.63 3.95113L1044.81 6.80599L1050.72 12.7305L1056.63 18.6545L1055.25 20.0953L1053.87 21.536L1052.4 20.1138L1050.93 18.6911L1049.41 20.2088L1047.9 21.727L1046.46 20.3509L1045.02 18.9753V24.8304V30.6855L1046.01 29.4334C1047.24 27.862 1047.73 27.8663 1049.39 29.4605L1050.73 30.7392L1052.3 29.2191L1053.87 27.699L1055.23 29.1231C1055.98 29.9062 1056.5 30.6494 1056.39 30.7744C1056.28 30.8994 1053.63 33.5784 1050.51 36.7279L1044.83 42.4538L1047.89 45.5377L1050.94 48.6211L1056.91 42.6662L1062.88 36.7108L1064.26 38.1482L1065.63 39.5856L1064.36 40.9185C1063.65 41.6512 1063.08 42.4414 1063.08 42.6742C1063.08 42.9071 1063.65 43.6973 1064.36 44.43L1065.63 45.7629L1064.27 47.1884L1062.9 48.614H1068.78H1074.66L1073.3 47.1884L1071.93 45.7629L1073.21 44.43C1073.91 43.6973 1074.48 42.9071 1074.48 42.6742C1074.48 42.4414 1073.91 41.6512 1073.21 40.9185L1071.93 39.5856L1073.31 38.1482L1074.68 36.7108L1080.65 42.6662L1086.62 48.6211L1089.69 45.5258L1092.76 42.43L1086.85 36.5055L1080.94 30.5805L1082.32 29.1398L1083.7 27.699L1085.27 29.2191L1086.83 30.7392L1088.17 29.4605C1089.83 27.8663 1090.32 27.862 1091.56 29.4334L1092.54 30.6855V24.8304V18.9753L1091.11 20.3433L1089.69 21.7109L1088.12 20.1908L1086.55 18.6707L1085.17 20.1105L1083.79 21.5503L1082.35 20.1128L1080.92 18.6759L1086.84 12.741L1092.76 6.80599L1089.93 3.95113C1088.38 2.38115 1086.89 1.09627 1086.62 1.09627C1086.36 1.09627 1083.56 3.66745 1080.41 6.81027L1074.68 12.5238L1073.31 11.0869L1071.93 9.64945L1073.3 8.22392L1074.66 6.79839L1073.39 5.46553C1071.8 3.81334 1071.79 3.22981 1073.3 2.24049C1073.95 1.81236 1074.48 1.27304 1074.48 1.04163C1074.48 0.810219 1071.88 0.621094 1068.69 0.621094H1062.9L1064.18 1.95396ZM1062.45 18.5205C1062.33 18.6365 1061.09 18.6655 1059.69 18.5856L1057.14 18.4402L1059.75 15.8268L1062.37 13.2133L1062.51 15.7617C1062.59 17.1634 1062.56 18.4051 1062.45 18.5205ZM1077.83 15.6671C1080.58 18.7253 1080.59 18.6778 1077.63 18.6778H1074.96V16.0477C1074.96 13.6875 1075.05 13.4637 1075.79 13.8685C1076.25 14.1166 1077.17 14.9258 1077.83 15.6671ZM1062.6 33.5109V36.4646L1060.01 33.9053C1058.59 32.4974 1057.53 31.1683 1057.67 30.9516C1057.8 30.7345 1058.97 30.5572 1060.26 30.5572H1062.6V33.5109ZM1079.9 30.9516C1080.03 31.1683 1078.98 32.4974 1077.55 33.9053L1074.96 36.4646V33.8279C1074.96 32.3772 1075.1 31.0481 1075.28 30.8742C1075.73 30.418 1079.61 30.4831 1079.9 30.9516Z" fill="#726E2C"/>
<path fill-rule="evenodd" clip-rule="evenodd" d="M1111.4 1.95396C1112.1 2.68668 1112.68 3.47691 1112.68 3.70974C1112.68 3.94258 1112.1 4.7328 1111.4 5.46553L1110.13 6.79839L1111.49 8.22392L1112.86 9.64945L1111.48 11.0869L1110.1 12.5238L1104.37 6.81027C1101.22 3.66745 1098.43 1.09627 1098.16 1.09627C1097.9 1.09627 1096.41 2.38115 1094.86 3.95113L1092.03 6.80599L1097.94 12.7305L1103.85 18.6545L1102.47 20.0953L1101.09 21.536L1099.62 20.1138L1098.15 18.6911L1096.64 20.2088L1095.12 21.727L1093.68 20.3509L1092.25 18.9753V24.8304V30.6855L1093.23 29.4334C1094.47 27.862 1094.95 27.8663 1096.62 29.4605L1097.95 30.7392L1099.52 29.2191L1101.09 27.699L1102.45 29.1231C1103.2 29.9062 1103.73 30.6494 1103.62 30.7744C1103.5 30.8994 1100.86 33.5784 1097.73 36.7279L1092.05 42.4538L1095.11 45.5377L1098.17 48.6211L1104.13 42.6662L1110.1 36.7108L1111.48 38.1482L1112.86 39.5856L1111.58 40.9185C1110.88 41.6512 1110.3 42.4414 1110.3 42.6742C1110.3 42.9071 1110.88 43.6973 1111.58 44.43L1112.86 45.7629L1111.49 47.1884L1110.13 48.614H1116H1121.88L1120.52 47.1884L1119.15 45.7629L1120.43 44.43C1121.13 43.6973 1121.71 42.9071 1121.71 42.6742C1121.71 42.4414 1121.13 41.6512 1120.43 40.9185L1119.15 39.5856L1120.53 38.1482L1121.91 36.7108L1127.88 42.6662L1133.84 48.6211L1136.91 45.5258L1139.98 42.43L1134.07 36.5055L1128.16 30.5805L1129.54 29.1398L1130.92 27.699L1132.49 29.2191L1134.06 30.7392L1135.39 29.4605C1137.06 27.8663 1137.54 27.862 1138.78 29.4334L1139.76 30.6855V24.8304V18.9753L1138.34 20.3433L1136.91 21.7109L1135.34 20.1908L1133.77 18.6707L1132.39 20.1105L1131.01 21.5503L1129.58 20.1128L1128.14 18.6759L1134.06 12.741L1139.98 6.80599L1137.15 3.95113C1135.6 2.38115 1134.11 1.09627 1133.85 1.09627C1133.58 1.09627 1130.79 3.66745 1127.63 6.81027L1121.91 12.5238L1120.53 11.0869L1119.15 9.64945L1120.52 8.22392L1121.88 6.79839L1120.61 5.46553C1119.03 3.81334 1119.01 3.22981 1120.52 2.24049C1121.17 1.81236 1121.71 1.27304 1121.71 1.04163C1121.71 0.810219 1119.1 0.621094 1115.92 0.621094H1110.13L1111.4 1.95396ZM1109.67 18.5205C1109.55 18.6365 1108.31 18.6655 1106.91 18.5856L1104.36 18.4402L1106.98 15.8268L1109.59 13.2133L1109.73 15.7617C1109.81 17.1634 1109.78 18.4051 1109.67 18.5205ZM1125.06 15.6671C1127.81 18.7253 1127.81 18.6778 1124.85 18.6778H1122.18V16.0477C1122.18 13.6875 1122.27 13.4637 1123.01 13.8685C1123.47 14.1166 1124.39 14.9258 1125.06 15.6671ZM1109.83 33.5109V36.4646L1107.24 33.9053C1105.81 32.4974 1104.75 31.1683 1104.89 30.9516C1105.02 30.7345 1106.19 30.5572 1107.48 30.5572H1109.83V33.5109ZM1127.12 30.9516C1127.26 31.1683 1126.2 32.4974 1124.77 33.9053L1122.18 36.4646V33.8279C1122.18 32.3772 1122.32 31.0481 1122.5 30.8742C1122.95 30.418 1126.83 30.4831 1127.12 30.9516Z" fill="#726E2C"/>
<path fill-rule="evenodd" clip-rule="evenodd" d="M1158.62 1.95396C1159.33 2.68668 1159.9 3.47691 1159.9 3.70974C1159.9 3.94258 1159.33 4.7328 1158.62 5.46553L1157.35 6.79839L1158.71 8.22392L1160.08 9.64945L1158.7 11.0869L1157.32 12.5238L1151.6 6.81027C1148.45 3.66745 1145.65 1.09627 1145.39 1.09627C1145.12 1.09627 1143.63 2.38115 1142.08 3.95113L1139.25 6.80599L1145.16 12.7305L1151.07 18.6545L1149.69 20.0953L1148.31 21.536L1146.84 20.1138L1145.38 18.6911L1143.86 20.2088L1142.34 21.727L1140.9 20.3509L1139.47 18.9753V24.8304V30.6855L1140.45 29.4334C1141.69 27.862 1142.18 27.8663 1143.84 29.4605L1145.18 30.7392L1146.74 29.2191L1148.31 27.699L1149.68 29.1231C1150.43 29.9062 1150.95 30.6494 1150.84 30.7744C1150.73 30.8994 1148.08 33.5784 1144.96 36.7279L1139.28 42.4538L1142.33 45.5377L1145.39 48.6211L1151.36 42.6662L1157.32 36.7108L1158.7 38.1482L1160.08 39.5856L1158.8 40.9185C1158.1 41.6512 1157.53 42.4414 1157.53 42.6742C1157.53 42.9071 1158.1 43.6973 1158.8 44.43L1160.08 45.7629L1158.71 47.1884L1157.35 48.614H1163.23H1169.11L1167.74 47.1884L1166.38 45.7629L1167.65 44.43C1168.36 43.6973 1168.93 42.9071 1168.93 42.6742C1168.93 42.4414 1168.36 41.6512 1167.65 40.9185L1166.38 39.5856L1167.75 38.1482L1169.13 36.7108L1175.1 42.6662L1181.07 48.6211L1184.13 45.5258L1187.2 42.43L1181.29 36.5055L1175.38 30.5805L1176.76 29.1398L1178.14 27.699L1179.71 29.2191L1181.28 30.7392L1182.61 29.4605C1184.28 27.8663 1184.77 27.862 1186 29.4334L1186.99 30.6855V24.8304V18.9753L1185.56 20.3433L1184.13 21.7109L1182.56 20.1908L1180.99 18.6707L1179.61 20.1105L1178.24 21.5503L1176.8 20.1128L1175.36 18.6759L1181.28 12.741L1187.2 6.80599L1184.38 3.95113C1182.82 2.38115 1181.33 1.09627 1181.07 1.09627C1180.8 1.09627 1178.01 3.66745 1174.86 6.81027L1169.13 12.5238L1167.75 11.0869L1166.38 9.64945L1167.74 8.22392L1169.11 6.79839L1167.83 5.46553C1166.25 3.81334 1166.23 3.22981 1167.74 2.24049C1168.4 1.81236 1168.93 1.27304 1168.93 1.04163C1168.93 0.810219 1166.32 0.621094 1163.14 0.621094H1157.35L1158.62 1.95396ZM1156.89 18.5205C1156.77 18.6365 1155.53 18.6655 1154.13 18.5856L1151.59 18.4402L1154.2 15.8268L1156.81 13.2133L1156.96 15.7617C1157.04 17.1634 1157.01 18.4051 1156.89 18.5205ZM1172.28 15.6671C1175.03 18.7253 1175.03 18.6778 1172.08 18.6778H1169.4V16.0477C1169.4 13.6875 1169.49 13.4637 1170.24 13.8685C1170.69 14.1166 1171.61 14.9258 1172.28 15.6671ZM1157.05 33.5109V36.4646L1154.46 33.9053C1153.03 32.4974 1151.98 31.1683 1152.11 30.9516C1152.24 30.7345 1153.41 30.5572 1154.7 30.5572H1157.05V33.5109ZM1174.34 30.9516C1174.48 31.1683 1173.42 32.4974 1172 33.9053L1169.4 36.4646V33.8279C1169.4 32.3772 1169.55 31.0481 1169.72 30.8742C1170.18 30.418 1174.05 30.4831 1174.34 30.9516Z" fill="#726E2C"/>
<path fill-rule="evenodd" clip-rule="evenodd" d="M1205.85 1.95396C1206.55 2.68668 1207.12 3.47691 1207.12 3.70974C1207.12 3.94258 1206.55 4.7328 1205.85 5.46553L1204.57 6.79839L1205.94 8.22392L1207.3 9.64945L1205.93 11.0869L1204.55 12.5238L1198.82 6.81027C1195.67 3.66745 1192.88 1.09627 1192.61 1.09627C1192.34 1.09627 1190.86 2.38115 1189.3 3.95113L1186.48 6.80599L1192.39 12.7305L1198.3 18.6545L1196.92 20.0953L1195.54 21.536L1194.07 20.1138L1192.6 18.6911L1191.08 20.2088L1189.56 21.727L1188.13 20.3509L1186.69 18.9753V24.8304V30.6855L1187.68 29.4334C1188.91 27.862 1189.4 27.8663 1191.06 29.4605L1192.4 30.7392L1193.97 29.2191L1195.54 27.699L1196.9 29.1231C1197.65 29.9062 1198.17 30.6494 1198.06 30.7744C1197.95 30.8994 1195.3 33.5784 1192.18 36.7279L1186.5 42.4538L1189.56 45.5377L1192.61 48.6211L1198.58 42.6662L1204.55 36.7108L1205.93 38.1482L1207.3 39.5856L1206.03 40.9185C1205.32 41.6512 1204.75 42.4414 1204.75 42.6742C1204.75 42.9071 1205.32 43.6973 1206.03 44.43L1207.3 45.7629L1205.94 47.1884L1204.57 48.614H1210.45H1216.33L1214.97 47.1884L1213.6 45.7629L1214.88 44.43C1215.58 43.6973 1216.15 42.9071 1216.15 42.6742C1216.15 42.4414 1215.58 41.6512 1214.88 40.9185L1213.6 39.5856L1214.98 38.1482L1216.35 36.7108L1222.32 42.6662L1228.29 48.6211L1231.36 45.5258L1234.43 42.43L1228.52 36.5055L1222.61 30.5805L1223.99 29.1398L1225.37 27.699L1226.94 29.2191L1228.5 30.7392L1229.84 29.4605C1231.5 27.8663 1231.99 27.862 1233.22 29.4334L1234.21 30.6855V24.8304V18.9753L1232.78 20.3433L1231.35 21.7109L1229.79 20.1908L1228.22 18.6707L1226.84 20.1105L1225.46 21.5503L1224.02 20.1128L1222.58 18.6759L1228.51 12.741L1234.43 6.80599L1231.6 3.95113C1230.05 2.38115 1228.56 1.09627 1228.29 1.09627C1228.03 1.09627 1225.23 3.66745 1222.08 6.81027L1216.35 12.5238L1214.98 11.0869L1213.6 9.64945L1214.97 8.22392L1216.33 6.79839L1215.05 5.46553C1213.47 3.81334 1213.46 3.22981 1214.97 2.24049C1215.62 1.81236 1216.15 1.27304 1216.15 1.04163C1216.15 0.810219 1213.55 0.621094 1210.36 0.621094H1204.57L1205.85 1.95396ZM1204.11 18.5205C1204 18.6365 1202.76 18.6655 1201.36 18.5856L1198.81 18.4402L1201.42 15.8268L1204.04 13.2133L1204.18 15.7617C1204.26 17.1634 1204.23 18.4051 1204.11 18.5205ZM1219.5 15.6671C1222.25 18.7253 1222.26 18.6778 1219.3 18.6778H1216.63V16.0477C1216.63 13.6875 1216.71 13.4637 1217.46 13.8685C1217.92 14.1166 1218.84 14.9258 1219.5 15.6671ZM1204.27 33.5109V36.4646L1201.68 33.9053C1200.26 32.4974 1199.2 31.1683 1199.33 30.9516C1199.47 30.7345 1200.63 30.5572 1201.93 30.5572H1204.27V33.5109ZM1221.57 30.9516C1221.7 31.1683 1220.65 32.4974 1219.22 33.9053L1216.63 36.4646V33.8279C1216.63 32.3772 1216.77 31.0481 1216.95 30.8742C1217.4 30.418 1221.28 30.4831 1221.57 30.9516Z" fill="#726E2C"/>
<path fill-rule="evenodd" clip-rule="evenodd" d="M1253.07 1.95396C1253.77 2.68668 1254.35 3.47691 1254.35 3.70974C1254.35 3.94258 1253.77 4.7328 1253.07 5.46553L1251.79 6.79839L1253.16 8.22392L1254.53 9.64945L1253.15 11.0869L1251.77 12.5238L1246.04 6.81027C1242.89 3.66745 1240.1 1.09627 1239.83 1.09627C1239.57 1.09627 1238.08 2.38115 1236.52 3.95113L1233.7 6.80599L1239.61 12.7305L1245.52 18.6545L1244.14 20.0953L1242.76 21.536L1241.29 20.1138L1239.82 18.6911L1238.31 20.2088L1236.79 21.727L1235.35 20.3509L1233.91 18.9753V24.8304V30.6855L1234.9 29.4334C1236.14 27.862 1236.62 27.8663 1238.29 29.4605L1239.62 30.7392L1241.19 29.2191L1242.76 27.699L1244.12 29.1231C1244.87 29.9062 1245.4 30.6494 1245.28 30.7744C1245.17 30.8994 1242.53 33.5784 1239.4 36.7279L1233.72 42.4538L1236.78 45.5377L1239.83 48.6211L1245.8 42.6662L1251.77 36.7108L1253.15 38.1482L1254.53 39.5856L1253.25 40.9185C1252.55 41.6512 1251.97 42.4414 1251.97 42.6742C1251.97 42.9071 1252.55 43.6973 1253.25 44.43L1254.53 45.7629L1253.16 47.1884L1251.79 48.614H1257.67H1263.55L1262.19 47.1884L1260.82 45.7629L1262.1 44.43C1262.8 43.6973 1263.38 42.9071 1263.38 42.6742C1263.38 42.4414 1262.8 41.6512 1262.1 40.9185L1260.82 39.5856L1262.2 38.1482L1263.58 36.7108L1269.54 42.6662L1275.51 48.6211L1278.58 45.5258L1281.65 42.43L1275.74 36.5055L1269.83 30.5805L1271.21 29.1398L1272.59 27.699L1274.16 29.2191L1275.73 30.7392L1277.06 29.4605C1278.73 27.8663 1279.21 27.862 1280.45 29.4334L1281.43 30.6855V24.8304V18.9753L1280 20.3433L1278.58 21.7109L1277.01 20.1908L1275.44 18.6707L1274.06 20.1105L1272.68 21.5503L1271.24 20.1128L1269.81 18.6759L1275.73 12.741L1281.65 6.80599L1278.82 3.95113C1277.27 2.38115 1275.78 1.09627 1275.51 1.09627C1275.25 1.09627 1272.45 3.66745 1269.3 6.81027L1263.58 12.5238L1262.2 11.0869L1260.82 9.64945L1262.19 8.22392L1263.55 6.79839L1262.28 5.46553C1260.69 3.81334 1260.68 3.22981 1262.19 2.24049C1262.84 1.81236 1263.38 1.27304 1263.38 1.04163C1263.38 0.810219 1260.77 0.621094 1257.58 0.621094H1251.79L1253.07 1.95396ZM1251.34 18.5205C1251.22 18.6365 1249.98 18.6655 1248.58 18.5856L1246.03 18.4402L1248.65 15.8268L1251.26 13.2133L1251.4 15.7617C1251.48 17.1634 1251.45 18.4051 1251.34 18.5205ZM1266.73 15.6671C1269.48 18.7253 1269.48 18.6778 1266.52 18.6778H1263.85V16.0477C1263.85 13.6875 1263.94 13.4637 1264.68 13.8685C1265.14 14.1166 1266.06 14.9258 1266.73 15.6671ZM1251.5 33.5109V36.4646L1248.9 33.9053C1247.48 32.4974 1246.42 31.1683 1246.56 30.9516C1246.69 30.7345 1247.86 30.5572 1249.15 30.5572H1251.5V33.5109ZM1268.79 30.9516C1268.92 31.1683 1267.87 32.4974 1266.44 33.9053L1263.85 36.4646V33.8279C1263.85 32.3772 1263.99 31.0481 1264.17 30.8742C1264.62 30.418 1268.5 30.4831 1268.79 30.9516Z" fill="#726E2C"/>
<path fill-rule="evenodd" clip-rule="evenodd" d="M1300.29 1.95396C1301 2.68668 1301.57 3.47691 1301.57 3.70974C1301.57 3.94258 1301 4.7328 1300.29 5.46553L1299.02 6.79839L1300.38 8.22392L1301.75 9.64945L1300.37 11.0869L1298.99 12.5238L1293.27 6.81027C1290.12 3.66745 1287.32 1.09627 1287.06 1.09627C1286.79 1.09627 1285.3 2.38115 1283.75 3.95113L1280.92 6.80599L1286.83 12.7305L1292.74 18.6545L1291.36 20.0953L1289.98 21.536L1288.51 20.1138L1287.05 18.6911L1285.53 20.2088L1284.01 21.727L1282.57 20.3509L1281.14 18.9753V24.8304V30.6855L1282.12 29.4334C1283.36 27.862 1283.85 27.8663 1285.51 29.4605L1286.84 30.7392L1288.41 29.2191L1289.98 27.699L1291.35 29.1231C1292.1 29.9062 1292.62 30.6494 1292.51 30.7744C1292.4 30.8994 1289.75 33.5784 1286.62 36.7279L1280.94 42.4538L1284 45.5377L1287.06 48.6211L1293.03 42.6662L1298.99 36.7108L1300.37 38.1482L1301.75 39.5856L1300.47 40.9185C1299.77 41.6512 1299.19 42.4414 1299.19 42.6742C1299.19 42.9071 1299.77 43.6973 1300.47 44.43L1301.75 45.7629L1300.38 47.1884L1299.02 48.614H1304.9H1310.78L1309.41 47.1884L1308.04 45.7629L1309.32 44.43C1310.02 43.6973 1310.6 42.9071 1310.6 42.6742C1310.6 42.4414 1310.02 41.6512 1309.32 40.9185L1308.04 39.5856L1309.42 38.1482L1310.8 36.7108L1316.77 42.6662L1322.74 48.6211L1325.8 45.5258L1328.87 42.43L1322.96 36.5055L1317.05 30.5805L1318.43 29.1398L1319.81 27.699L1321.38 29.2191L1322.95 30.7392L1324.28 29.4605C1325.95 27.8663 1326.43 27.862 1327.67 29.4334L1328.66 30.6855V24.8304V18.9753L1327.23 20.3433L1325.8 21.7109L1324.23 20.1908L1322.66 18.6707L1321.28 20.1105L1319.9 21.5503L1318.47 20.1128L1317.03 18.6759L1322.95 12.741L1328.87 6.80599L1326.05 3.95113C1324.49 2.38115 1323 1.09627 1322.74 1.09627C1322.47 1.09627 1319.68 3.66745 1316.53 6.81027L1310.8 12.5238L1309.42 11.0869L1308.04 9.64945L1309.41 8.22392L1310.78 6.79839L1309.5 5.46553C1307.92 3.81334 1307.9 3.22981 1309.41 2.24049C1310.06 1.81236 1310.6 1.27304 1310.6 1.04163C1310.6 0.810219 1307.99 0.621094 1304.81 0.621094H1299.02L1300.29 1.95396ZM1298.56 18.5205C1298.44 18.6365 1297.2 18.6655 1295.8 18.5856L1293.25 18.4402L1295.87 15.8268L1298.48 13.2133L1298.63 15.7617C1298.7 17.1634 1298.67 18.4051 1298.56 18.5205ZM1313.95 15.6671C1316.7 18.7253 1316.7 18.6778 1313.75 18.6778H1311.07V16.0477C1311.07 13.6875 1311.16 13.4637 1311.91 13.8685C1312.36 14.1166 1313.28 14.9258 1313.95 15.6671ZM1298.72 33.5109V36.4646L1296.13 33.9053C1294.7 32.4974 1293.65 31.1683 1293.78 30.9516C1293.91 30.7345 1295.08 30.5572 1296.37 30.5572H1298.72V33.5109ZM1316.01 30.9516C1316.15 31.1683 1315.09 32.4974 1313.67 33.9053L1311.07 36.4646V33.8279C1311.07 32.3772 1311.22 31.0481 1311.39 30.8742C1311.85 30.418 1315.72 30.4831 1316.01 30.9516Z" fill="#726E2C"/>
<path fill-rule="evenodd" clip-rule="evenodd" d="M1347.52 1.95396C1348.22 2.68668 1348.79 3.47691 1348.79 3.70974C1348.79 3.94258 1348.22 4.7328 1347.52 5.46553L1346.24 6.79839L1347.6 8.22392L1348.97 9.64945L1347.59 11.0869L1346.22 12.5238L1340.49 6.81027C1337.34 3.66745 1334.54 1.09627 1334.28 1.09627C1334.01 1.09627 1332.52 2.38115 1330.97 3.95113L1328.14 6.80599L1334.05 12.7305L1339.96 18.6545L1338.58 20.0953L1337.2 21.536L1335.74 20.1138L1334.27 18.6911L1332.75 20.2088L1331.23 21.727L1329.8 20.3509L1328.36 18.9753V24.8304V30.6855L1329.35 29.4334C1330.58 27.862 1331.07 27.8663 1332.73 29.4605L1334.07 30.7392L1335.64 29.2191L1337.2 27.699L1338.57 29.1231C1339.32 29.9062 1339.84 30.6494 1339.73 30.7744C1339.62 30.8994 1336.97 33.5784 1333.85 36.7279L1328.17 42.4538L1331.22 45.5377L1334.28 48.6211L1340.25 42.6662L1346.22 36.7108L1347.59 38.1482L1348.97 39.5856L1347.69 40.9185C1346.99 41.6512 1346.42 42.4414 1346.42 42.6742C1346.42 42.9071 1346.99 43.6973 1347.69 44.43L1348.97 45.7629L1347.6 47.1884L1346.24 48.614H1352.12H1358L1356.63 47.1884L1355.27 45.7629L1356.54 44.43C1357.25 43.6973 1357.82 42.9071 1357.82 42.6742C1357.82 42.4414 1357.25 41.6512 1356.54 40.9185L1355.27 39.5856L1356.64 38.1482L1358.02 36.7108L1363.99 42.6662L1369.96 48.6211L1373.03 45.5258L1376.09 42.43L1370.18 36.5055L1364.27 30.5805L1365.65 29.1398L1367.03 27.699L1368.6 29.2191L1370.17 30.7392L1371.51 29.4605C1373.17 27.8663 1373.66 27.862 1374.89 29.4334L1375.88 30.6855V24.8304V18.9753L1374.45 20.3433L1373.02 21.7109L1371.45 20.1908L1369.89 18.6707L1368.51 20.1105L1367.13 21.5503L1365.69 20.1128L1364.25 18.6759L1370.17 12.741L1376.09 6.80599L1373.27 3.95113C1371.71 2.38115 1370.23 1.09627 1369.96 1.09627C1369.69 1.09627 1366.9 3.66745 1363.75 6.81027L1358.02 12.5238L1356.64 11.0869L1355.27 9.64945L1356.63 8.22392L1358 6.79839L1356.72 5.46553C1355.14 3.81334 1355.12 3.22981 1356.63 2.24049C1357.29 1.81236 1357.82 1.27304 1357.82 1.04163C1357.82 0.810219 1355.22 0.621094 1352.03 0.621094H1346.24L1347.52 1.95396ZM1345.78 18.5205C1345.67 18.6365 1344.43 18.6655 1343.02 18.5856L1340.48 18.4402L1343.09 15.8268L1345.7 13.2133L1345.85 15.7617C1345.93 17.1634 1345.9 18.4051 1345.78 18.5205ZM1361.17 15.6671C1363.92 18.7253 1363.92 18.6778 1360.97 18.6778H1358.3V16.0477C1358.3 13.6875 1358.38 13.4637 1359.13 13.8685C1359.59 14.1166 1360.51 14.9258 1361.17 15.6671ZM1345.94 33.5109V36.4646L1343.35 33.9053C1341.93 32.4974 1340.87 31.1683 1341 30.9516C1341.14 30.7345 1342.3 30.5572 1343.59 30.5572H1345.94V33.5109ZM1363.24 30.9516C1363.37 31.1683 1362.31 32.4974 1360.89 33.9053L1358.3 36.4646V33.8279C1358.3 32.3772 1358.44 31.0481 1358.61 30.8742C1359.07 30.418 1362.95 30.4831 1363.24 30.9516Z" fill="#726E2C"/>
</svg>
